<svg width="18" height="18" viewBox="0 0 18 18" fill="none" xmlns="http://www.w3.org/2000/svg">
<path fill-rule="evenodd" clip-rule="evenodd" d="M3.5789 0.000146597C4.10355 0.000142768 4.5576 -0.00905029 4.97547 0.118798L5.15476 0.18032C5.56731 0.33892 5.93591 0.596646 6.22702 0.931777L6.32985 1.0601C6.55823 1.36777 6.71562 1.7411 6.90201 2.16047L7.26499 2.97521L7.43198 3.35314C7.59058 3.71976 7.71716 4.06005 7.75102 4.41572L7.76157 4.57305C7.77307 4.88877 7.72874 5.20409 7.63149 5.50468L7.57876 5.65409C7.4491 5.98686 7.23453 6.2791 6.98199 6.58836L6.71832 6.90564C6.38678 7.30349 6.26162 7.46385 6.20241 7.56745L6.16022 7.65885C6.1161 7.77974 6.09578 7.97431 6.11452 8.10182L6.13561 8.19674C6.16681 8.29958 6.23969 8.44818 6.44586 8.83394L6.57858 9.07476C7.19797 10.1663 7.8338 10.8021 8.92523 11.4214L9.16605 11.5541L9.47981 11.7194C9.64578 11.8043 9.73466 11.8436 9.80325 11.8644L9.89817 11.8855L10.0045 11.8925C10.1184 11.8927 10.2503 11.8729 10.3411 11.8398L10.4325 11.7976C10.5361 11.7384 10.6964 11.6133 11.0943 11.2817L11.4116 11.018C11.7209 10.7655 12.0131 10.5509 12.3459 10.4212L12.4953 10.3685C12.8459 10.255 13.217 10.2139 13.5851 10.249L13.7618 10.2736C14.1718 10.3472 14.5704 10.5331 15.0248 10.735L16.1875 11.2527C16.523 11.4054 16.8207 11.558 17.0682 11.773L17.2071 11.9022C17.5197 12.2146 17.7513 12.6001 17.8812 13.0245L17.9234 13.1827C18.0072 13.5567 17.9998 13.9618 17.9998 14.4211C17.9998 14.8337 18.0001 15.1958 17.9761 15.4977C17.9542 15.7737 17.9097 16.0463 17.8038 16.3177L17.7537 16.4346C17.4766 17.0395 16.9245 17.5635 16.3036 17.818L16.1788 17.8655C15.7294 18.0211 15.2736 18.0164 14.7822 17.9762L14.2777 17.9288C10.0596 17.5217 6.68916 16.1497 4.26972 13.7303C2.00162 11.4621 0.654096 8.35819 0.159118 4.50361L0.0712286 3.72227C0.00453906 3.03113 -0.0729363 2.42051 0.134509 1.82122L0.18197 1.69642C0.436403 1.07574 0.960322 0.523391 1.56535 0.246238L1.68225 0.197019C1.95379 0.0910021 2.22617 0.045821 2.50226 0.0238768C2.80421 -0.000111077 3.16626 0.000146578 3.5789 0.000146597ZM3.5789 1.80013C3.13813 1.80013 2.85895 1.80068 2.64464 1.81771C2.54429 1.82569 2.47369 1.83615 2.42228 1.84759L2.31505 1.88274C2.14137 1.96229 1.9592 2.14831 1.86857 2.33186L1.83605 2.41008C1.78576 2.55534 1.78236 2.71025 1.8633 3.54913L1.94416 4.27422C2.40168 7.83998 3.62411 10.5393 5.54236 12.4576C7.58855 14.5038 10.5237 15.7577 14.4508 16.1367L14.9624 16.1824C15.3667 16.2132 15.481 16.2016 15.5899 16.1639L15.6681 16.1314C15.8516 16.0408 16.0376 15.8587 16.1172 15.6849L16.1524 15.5777C16.1638 15.5263 16.1743 15.4556 16.1823 15.3554C16.1993 15.141 16.1999 14.8618 16.1999 14.4211C16.1999 13.9404 16.1941 13.7471 16.1788 13.6389L16.1603 13.551C16.123 13.4291 16.0605 13.3168 15.9775 13.2214L15.8878 13.1317C15.81 13.0641 15.6954 13.003 15.1091 12.7424L14.2935 12.3803C13.817 12.1685 13.6237 12.0893 13.5096 12.0586L13.4146 12.041C13.309 12.031 13.2022 12.039 13.1 12.0656L12.9998 12.0982C12.9209 12.1289 12.8368 12.182 12.5744 12.3943L12.2466 12.665C11.8647 12.9834 11.5296 13.2745 11.133 13.4587L10.959 13.5308C10.5568 13.6776 10.0594 13.7287 9.63538 13.6661C9.13907 13.5929 8.75526 13.3752 8.31791 13.1414C6.78197 12.3206 5.85426 11.4389 5.02293 9.98178L4.8577 9.68207C4.65327 9.2996 4.46192 8.95753 4.36815 8.54566L4.33388 8.36461C4.27148 7.94093 4.32228 7.44324 4.46923 7.04099L4.5413 6.86697C4.72552 6.47046 5.01666 6.13535 5.33494 5.75341L5.60564 5.42558C5.818 5.16323 5.87112 5.07903 5.90183 5.00019L5.93435 4.9C5.95204 4.83198 5.96179 4.76196 5.96335 4.6917L5.95895 4.58535C5.95087 4.50128 5.92246 4.40608 5.79021 4.09668L5.6197 3.70645L5.2576 2.89084C5.06221 2.45124 4.97896 2.27676 4.92098 2.18421L4.86824 2.11214C4.78463 2.0159 4.68147 1.9389 4.56678 1.88538L4.44901 1.83968C4.35025 1.80947 4.22046 1.80013 3.5789 1.80013Z" fill="#8FD3F5"/>
</svg>
