<svg width="18" height="16" viewBox="0 0 18 16" fill="none" xmlns="http://www.w3.org/2000/svg">
<path fill-rule="evenodd" clip-rule="evenodd" d="M15.4043 0.501953C16.8541 0.502181 18.0036 1.69098 18.0039 3.12598V12.873C18.0038 14.3082 16.8542 15.4978 15.4043 15.498H2.60059C1.15045 15.498 0.000102225 14.3083 0 12.873V3.12598C0.000258723 1.69085 1.15055 0.501953 2.60059 0.501953H15.4043ZM2 12.873C2.0001 13.232 2.28306 13.498 2.60059 13.498H15.4043C15.7217 13.4978 16.0038 13.2318 16.0039 12.873V5.77539L10.3525 9.42969C10.341 9.43714 10.3292 9.44518 10.3174 9.45215C9.96982 9.65699 9.57984 9.77771 9.17871 9.80469L9.00586 9.80957C8.60191 9.80957 8.20485 9.71485 7.8457 9.53418L7.69434 9.45215C7.68267 9.44527 7.67056 9.43801 7.65918 9.43066L2 5.77441V12.873ZM2.60059 2.50195C2.28314 2.50195 2.00025 2.76719 2 3.12598V3.39355L8.71387 7.73047C8.80379 7.78259 8.9043 7.80957 9.00586 7.80957L9.08301 7.80469C9.15927 7.79438 9.23371 7.76862 9.30176 7.72852L16.0039 3.39355V3.12598C16.0037 2.76734 15.7216 2.50218 15.4043 2.50195H2.60059Z" fill="#8FD3F5"/>
</svg>
