<svg width="20" height="24" viewBox="0 0 20 24" fill="none" xmlns="http://www.w3.org/2000/svg">
<path d="M15.7197 18.0049L15.8213 18.0195L16.2158 18.1025C17.1229 18.305 17.9225 18.5615 18.5371 18.874C18.8867 19.0518 19.2264 19.2723 19.4902 19.5527C19.7587 19.8382 20 20.2444 20 20.7539C19.9999 21.6365 19.3074 22.1903 18.8008 22.4893C18.2268 22.8279 17.4628 23.0987 16.6064 23.3125C14.8779 23.7439 12.5422 24 10 24C7.45779 24 5.12217 23.7439 3.39355 23.3125C2.53718 23.0987 1.7732 22.8279 1.19922 22.4893C0.724157 22.2089 0.0855913 21.7046 0.0078125 20.915L0 20.7539L0.0107422 20.5674C0.060588 20.1446 0.274838 19.8025 0.509766 19.5527C0.773643 19.2723 1.11325 19.0518 1.46289 18.874C2.16517 18.5169 3.10906 18.2336 4.17871 18.0195L4.28027 18.0049C4.78459 17.9564 5.25387 18.2962 5.35547 18.8037C5.45698 19.3111 5.15487 19.8057 4.6709 19.9551L4.57129 19.9805C3.58377 20.1781 2.83993 20.4169 2.36914 20.6562C2.30173 20.6905 2.24368 20.7231 2.19434 20.7529C2.20132 20.7572 2.20844 20.7622 2.21582 20.7666C2.5526 20.9653 3.10622 21.1794 3.87793 21.3721C5.40664 21.7536 7.57187 22 10 22C12.4282 22 14.5934 21.7536 16.1221 21.3721C16.8938 21.1794 17.4474 20.9653 17.7842 20.7666C17.7913 20.7624 17.7979 20.757 17.8047 20.7529C17.7555 20.7232 17.6979 20.6904 17.6309 20.6562C17.219 20.4468 16.5982 20.238 15.7881 20.0566L15.4287 19.9805L15.3291 19.9551C14.845 19.8057 14.543 19.3112 14.6445 18.8037C14.7462 18.2961 15.2153 17.9563 15.7197 18.0049Z" fill="#8FD3F5"/>
<path fill-rule="evenodd" clip-rule="evenodd" d="M10 5C11.933 5 13.5 6.567 13.5 8.5C13.5 10.433 11.933 12 10 12C8.06702 12 6.5 10.433 6.5 8.5C6.5 6.567 8.06702 5 10 5ZM10 7C9.17158 7 8.5 7.67158 8.5 8.5C8.5 9.32841 9.17159 10 10 10C10.8284 10 11.5 9.32841 11.5 8.5C11.5 7.67158 10.8284 7 10 7Z" fill="#8FD3F5"/>
<path fill-rule="evenodd" clip-rule="evenodd" d="M10 0C13.5337 9.1631e-05 16.9013 2.11449 18.3115 5.45215L18.4287 5.74316C19.5791 8.72767 18.8617 11.2918 17.4424 13.4688C16.3798 15.0984 14.8825 16.5704 13.4785 17.8887L12.125 19.1562C11.5519 19.6994 10.7893 19.9999 10 20C9.2106 19.9999 8.44811 19.6994 7.875 19.1562L7.87305 19.1543C6.16926 17.5291 3.97788 15.6367 2.56055 13.4678C1.09357 11.2226 0.373404 8.56499 1.68848 5.45215L1.82715 5.14355C3.31002 1.98489 6.57658 8.60061e-05 10 0ZM10 2C7.32266 2.00009 4.77993 3.56189 3.6377 5.99316L3.53125 6.23047C2.53951 8.57797 3.03153 10.5318 4.23535 12.374C5.48837 14.2915 7.42581 15.9633 9.25098 17.7041L9.3291 17.7715C9.51666 17.9174 9.7528 18 10 18C10.2473 17.9999 10.4842 17.9177 10.6719 17.7715L10.749 17.7041C12.5764 15.9714 14.5154 14.2958 15.7666 12.377C16.8941 10.6476 17.3955 8.81942 16.6377 6.66602L16.4688 6.23047C15.3842 3.66386 12.7635 2.00009 10 2Z" fill="#8FD3F5"/>
</svg>
