<svg width="18" height="20" viewBox="0 0 18 20" fill="none" xmlns="http://www.w3.org/2000/svg">
<path fill-rule="evenodd" clip-rule="evenodd" d="M8.99977 5C10.9328 5 12.4998 6.567 12.4998 8.5C12.4998 10.433 10.9328 12 8.99977 12C7.06679 12 5.49977 10.433 5.49977 8.5C5.49977 6.567 7.06679 5 8.99977 5ZM8.99977 7C8.17135 7 7.49977 7.67158 7.49977 8.5C7.49977 9.32841 8.17136 10 8.99977 10C9.82819 10 10.4998 9.32841 10.4998 8.5C10.4998 7.67158 9.82819 7 8.99977 7Z" fill="#8FD3F5"/>
<path fill-rule="evenodd" clip-rule="evenodd" d="M9.00075 0C12.5343 0.000183305 15.9021 2.11456 17.3123 5.45215L17.4295 5.74316C18.5798 8.72759 17.8624 11.2918 16.4431 13.4688C15.3806 15.0984 13.8832 16.5704 12.4793 17.8887L11.1257 19.1562C10.5527 19.6994 9.78999 19.9999 9.00075 20C8.21141 19.9999 7.44884 19.6994 6.87575 19.1562L6.87379 19.1543C5.17003 17.5292 2.97863 15.6367 1.56129 13.4678C0.0943173 11.2226 -0.625849 8.56499 0.689223 5.45215L0.827895 5.14355C2.31078 1.98494 5.57736 8.60053e-05 9.00075 0ZM9.00075 2C6.32344 2.00009 3.7807 3.56195 2.63844 5.99316L2.532 6.23047C1.54025 8.57797 2.03228 10.5318 3.2361 12.374C4.48912 14.2914 6.42659 15.9634 8.25172 17.7041L8.32985 17.7715C8.51739 17.9173 8.75361 18 9.00075 18C9.24798 17.9999 9.48502 17.9176 9.67262 17.7715L9.74977 17.7041C11.5771 15.9714 13.5162 14.2958 14.7673 12.377C15.8948 10.6477 16.3962 8.81935 15.6384 6.66602L15.4695 6.23047C14.385 3.66393 11.7641 2.00018 9.00075 2Z" fill="#8FD3F5"/>
</svg>
