<svg width="24" height="24" viewBox="0 0 24 24" fill="none" xmlns="http://www.w3.org/2000/svg">
<path d="M13.307 6.75556C13.3071 6.20895 13.5211 5.6838 13.9037 5.29343L17.2372 1.95903C16.4984 1.81481 15.735 1.80825 14.9863 1.94461C13.7722 2.16582 12.6544 2.75225 11.7817 3.62488C10.9091 4.49752 10.3227 5.61537 10.1015 6.82948C9.88037 8.04337 10.0345 9.29574 10.5432 10.4199C10.7016 10.7699 10.6265 11.1822 10.3548 11.4538L2.30046 19.5082C2.00983 19.7988 1.84614 20.1933 1.84614 20.6043C1.84617 21.0153 2.00987 21.4089 2.30046 21.6995C2.59105 21.9901 2.98475 22.1538 3.3957 22.1539L3.54895 22.1467C3.90375 22.1114 4.23753 21.9539 4.49185 21.6995L12.5462 13.6452L12.6543 13.5524C12.9199 13.3582 13.2738 13.3182 13.5801 13.4568C14.7043 13.9655 15.9566 14.1196 17.1705 13.8985C18.3846 13.6773 19.5025 13.0909 20.3751 12.2183C21.2477 11.3456 21.8342 10.2278 22.0554 9.01365C22.1918 8.26461 22.1845 7.50107 22.0401 6.76187L18.7066 10.0963C18.3162 10.4789 17.791 10.6929 17.2444 10.693C16.6978 10.693 16.1727 10.4789 15.7823 10.0963L15.7751 10.09L13.91 8.2249L13.9037 8.21769C13.5212 7.82727 13.307 7.30219 13.307 6.75556ZM15.1531 6.75556C15.1531 6.81906 15.1781 6.88058 15.2225 6.92593L17.0732 8.77748C17.1185 8.82193 17.1809 8.84689 17.2444 8.84689C17.2919 8.84682 17.3378 8.83288 17.377 8.80723L17.4139 8.77748L21.8021 4.3893L21.8868 4.31538C22.0929 4.15442 22.359 4.08682 22.6197 4.13419C22.9177 4.1885 23.1708 4.38555 23.2958 4.66153C23.9593 6.12777 24.1603 7.76207 23.8718 9.34538C23.5833 10.9285 22.8192 12.3865 21.6813 13.5244C20.5434 14.6623 19.0854 15.4264 17.5023 15.7149C16.1324 15.9645 14.7247 15.8471 13.4206 15.3814L5.79712 23.0057C5.20011 23.6027 4.40351 23.9538 3.56427 23.9955L3.3957 24C2.49512 24 1.63109 23.6425 0.994282 23.0057C0.357471 22.3689 3.72993e-05 21.5049 0 20.6043C0 19.7037 0.357526 18.8397 0.994282 18.2029L8.61771 10.5785C8.15236 9.27469 8.03557 7.86718 8.28508 6.49775C8.57362 4.91459 9.33766 3.45661 10.4756 2.3187C11.6135 1.18079 13.0715 0.416743 14.6546 0.128215C16.2379 -0.160267 17.8722 0.0407296 19.3385 0.704232L19.4376 0.757416C19.6611 0.893507 19.8183 1.11945 19.8658 1.38031C19.9199 1.67817 19.8247 1.98376 19.6107 2.19791L15.2216 6.58519L15.2225 6.58609C15.1782 6.63136 15.1532 6.69219 15.1531 6.75556Z" fill="#8FD3F5"/>
</svg>
