<svg width="20" height="24" viewBox="0 0 20 24" fill="none" xmlns="http://www.w3.org/2000/svg">
<path fill-rule="evenodd" clip-rule="evenodd" d="M10.0246 0C11.7578 0 13.4309 0.652748 14.672 1.8291C15.9146 3.00715 16.6241 4.61642 16.6242 6.30664V6.58984C17.8673 7.39807 18.8454 8.54154 19.423 9.88965C20.0798 11.4228 20.1768 13.124 19.6964 14.7178C19.2163 16.3104 18.1906 17.6936 16.7961 18.6543C15.4114 19.6081 13.7384 20.0932 12.0402 20.043L11.0265 20.0439V23C11.0264 23.5521 10.5786 23.9998 10.0265 24C9.47432 24 9.02665 23.5522 9.02652 23V20.0439H7.78531C7.76408 20.0439 7.74203 20.0434 7.72086 20.042C5.98747 19.9303 4.32944 19.3005 2.98648 18.2354C1.64263 17.1693 0.680123 15.7191 0.250153 14.0889C-0.179939 12.4579 -0.0526469 10.7393 0.610505 9.18359C1.20248 7.79503 2.19238 6.60526 3.45328 5.74219C3.59242 4.26139 4.2748 2.87515 5.37808 1.8291C6.61899 0.652845 8.29152 0.00021147 10.0246 0ZM10.0246 2C8.78846 2.00021 7.61269 2.46637 6.75406 3.28027C5.89736 4.0925 5.42605 5.18242 5.42593 6.30664C5.42589 6.66004 5.23983 6.988 4.9357 7.16797C3.80753 7.83517 2.94049 8.81816 2.45035 9.96777C1.96067 11.1166 1.86851 12.3802 2.18472 13.5791C2.50113 14.7786 3.21279 15.862 4.22867 16.668C5.23954 17.4698 6.49849 17.9537 7.82632 18.0439H9.02652V14.166L7.09879 12.3398L7.0275 12.2656C6.69705 11.8816 6.70472 11.3025 7.0607 10.9268C7.41696 10.5508 7.99538 10.5123 8.39664 10.8223L8.47379 10.8887L10.5861 12.8896L11.5783 11.9502L11.6554 11.8838C12.0567 11.5738 12.6351 11.6124 12.9914 11.9883C13.3471 12.364 13.3549 12.9432 13.0246 13.3271L12.9533 13.4014L11.0265 15.2266V18.0439H12.0402L12.0744 18.0449C13.3642 18.0884 14.628 17.7202 15.6623 17.0078C16.6956 16.2959 17.4368 15.2835 17.7814 14.1406C18.1256 12.9986 18.0575 11.7808 17.5851 10.6777C17.1415 9.64229 16.3624 8.75624 15.3507 8.15137L15.1457 8.03418C14.8243 7.85905 14.6242 7.52229 14.6242 7.15625V6.30664C14.6241 5.18232 14.1529 4.09253 13.2961 3.28027C12.4372 2.46628 11.2609 2 10.0246 2Z" fill="#8FD3F5"/>
</svg>
