<svg width="290" height="40" viewBox="0 0 290 40" fill="none" xmlns="http://www.w3.org/2000/svg">
<path d="M80.3225 39.8808H79.4512V33.3245H80.3225V39.8808Z" fill="#9FA0A0"/>
<path d="M91.7456 39.8808H90.8602L87.419 34.6958V39.8808H86.5908V33.3245H87.4761L90.9174 38.4953V33.3245H91.7456V39.8808Z" fill="#9FA0A0"/>
<path d="M101.37 34.0958H97.8431V36.1242H100.913V36.9098H97.8431V39.8808H96.9863V33.3245H101.399L101.37 34.0958Z" fill="#9FA0A0"/>
<path d="M111.195 39.8808H107.139V33.3245H107.996V39.038H111.195V39.8808Z" fill="#9FA0A0"/>
<path d="M122.217 39.8808H121.247L120.49 37.8811H117.734L117.006 39.8808H116.092L118.619 33.3245H119.547L122.217 39.8808ZM120.233 37.1383L119.076 34.0958L117.962 37.1383H120.233Z" fill="#9FA0A0"/>
<path d="M130.327 34.0958H128.143V39.8808H127.286V34.0958H125.13V33.3245H130.327V34.0958Z" fill="#9FA0A0"/>
<path d="M140.794 39.8808H139.809L139.052 37.8811H136.296L135.568 39.8808H134.654L137.181 33.3245H138.109L140.794 39.8808ZM138.795 37.1954L137.638 34.153L136.524 37.1954H138.795Z" fill="#9FA0A0"/>
<path d="M150.161 37.9811C150.184 38.2513 150.139 38.5227 150.032 38.7718C149.925 39.0208 149.759 39.2398 149.547 39.4095C149.011 39.7743 148.366 39.9456 147.72 39.8951H145.264V33.3388H147.591C147.914 33.3372 148.235 33.3756 148.548 33.4531C148.8 33.5157 149.038 33.6273 149.247 33.7816C149.436 33.919 149.588 34.1004 149.69 34.3101C149.794 34.5288 149.847 34.768 149.847 35.01C149.864 35.3198 149.78 35.6266 149.608 35.8843C149.435 36.142 149.183 36.3365 148.891 36.4384C149.093 36.487 149.286 36.569 149.462 36.6812C149.614 36.7769 149.749 36.8977 149.861 37.0383C149.96 37.1835 150.037 37.3423 150.09 37.5097C150.14 37.6617 150.164 37.8211 150.161 37.9811ZM146.12 36.067H147.548C147.915 36.0909 148.281 36.0117 148.605 35.8385C148.723 35.7495 148.816 35.632 148.876 35.4971C148.936 35.3622 148.96 35.2142 148.948 35.0671C148.947 34.926 148.923 34.786 148.876 34.6529C148.823 34.5289 148.734 34.4242 148.619 34.3529C148.486 34.2608 148.335 34.1975 148.177 34.1673C147.942 34.1179 147.702 34.0939 147.463 34.0958H146.035L146.12 36.067ZM146.12 39.0952H147.705C148.748 39.0952 149.276 38.7238 149.276 37.9811C149.279 37.8059 149.25 37.6316 149.19 37.4669C149.124 37.3314 149.026 37.2138 148.905 37.124C148.749 37.0196 148.575 36.9468 148.391 36.9098C148.125 36.8848 147.857 36.8848 147.591 36.9098H146.163L146.12 39.0952Z" fill="#9FA0A0"/>
<path d="M159.744 39.8808H155.687V33.3245H156.544V39.038H159.744V39.8808Z" fill="#9FA0A0"/>
<path d="M170.152 39.8808H165.254V33.3245H170.009V34.0958H166.111V36.0956H169.752V36.8812H166.111V39.0952H170.152V39.8808Z" fill="#9FA0A0"/>
<path d="M187.572 39.8809H186.644L186.016 38.1383C185.963 37.9843 185.885 37.8396 185.787 37.7097C185.7 37.5799 185.589 37.4683 185.459 37.3812C185.339 37.2839 185.204 37.2067 185.059 37.1527C184.901 37.107 184.738 37.0829 184.573 37.0812H182.96V39.938H182.089V33.3817H184.945C185.266 33.3786 185.586 33.4073 185.901 33.4674C186.166 33.5255 186.418 33.632 186.644 33.7817C186.847 33.9234 187.009 34.1154 187.115 34.3387C187.231 34.6141 187.285 34.9116 187.272 35.21C187.276 35.4285 187.242 35.6459 187.172 35.8528C187.103 36.0363 187.002 36.2057 186.872 36.3528C186.738 36.5027 186.578 36.6283 186.401 36.7241C186.217 36.8258 186.02 36.9027 185.816 36.9527C186.07 37.0595 186.296 37.2233 186.476 37.4313C186.657 37.6393 186.788 37.8861 186.858 38.1525L187.572 39.8809ZM182.96 36.2956H184.945C185.173 36.3135 185.402 36.3135 185.63 36.2956C185.805 36.2671 185.971 36.1987 186.116 36.0956C186.24 36.0091 186.338 35.8907 186.401 35.7528C186.463 35.5837 186.492 35.4043 186.487 35.2243C186.487 34.4673 186.016 34.0959 185.059 34.0959H182.974L182.96 36.2956Z" fill="#9FA0A0"/>
<path d="M194.84 39.9951C194.499 39.999 194.158 39.9606 193.826 39.8808C193.577 39.8168 193.34 39.7105 193.127 39.5666C192.943 39.4428 192.788 39.2822 192.67 39.0952C192.555 38.9088 192.469 38.7067 192.413 38.4953C192.352 38.2753 192.309 38.0508 192.284 37.8239C192.284 37.5954 192.284 37.3526 192.284 37.1097V33.3245H193.141V37.1383C193.135 37.4987 193.173 37.8586 193.255 38.2096C193.311 38.4472 193.424 38.6678 193.584 38.8524C193.734 39.0029 193.921 39.1112 194.126 39.1666C194.371 39.2151 194.619 39.239 194.869 39.238C195.114 39.2409 195.359 39.2121 195.597 39.1523C195.804 39.1025 195.993 38.9933 196.14 38.8381C196.299 38.6535 196.412 38.4329 196.468 38.1953C196.551 37.8493 196.589 37.4941 196.582 37.1383V33.3673H197.439V37.1383C197.441 37.5458 197.403 37.9525 197.325 38.3524C197.255 38.6837 197.113 38.9956 196.911 39.2666C196.702 39.5177 196.431 39.7097 196.125 39.8237C195.711 39.9601 195.275 40.0182 194.84 39.9951Z" fill="#9FA0A0"/>
<path d="M208.705 37.9811C208.728 38.2513 208.683 38.5227 208.576 38.7718C208.469 39.0208 208.303 39.2398 208.091 39.4095C207.555 39.7743 206.91 39.9456 206.264 39.8951H203.808V33.3388H206.135C206.458 33.3372 206.779 33.3756 207.092 33.4531C207.344 33.5157 207.582 33.6273 207.791 33.7816C207.98 33.919 208.132 34.1004 208.234 34.3101C208.338 34.5288 208.391 34.768 208.391 35.01C208.408 35.3198 208.324 35.6266 208.152 35.8843C207.979 36.142 207.727 36.3365 207.434 36.4384C207.637 36.487 207.83 36.569 208.006 36.6812C208.158 36.7769 208.293 36.8977 208.405 37.0383C208.504 37.1835 208.581 37.3423 208.634 37.5097C208.684 37.6617 208.708 37.8211 208.705 37.9811ZM204.664 36.067H206.092C206.459 36.0909 206.825 36.0117 207.149 35.8385C207.267 35.7495 207.36 35.632 207.42 35.4971C207.48 35.3622 207.504 35.2142 207.492 35.0671C207.491 34.926 207.467 34.786 207.42 34.6529C207.367 34.5289 207.278 34.4242 207.163 34.3529C207.03 34.2608 206.879 34.1975 206.721 34.1673C206.486 34.1179 206.246 34.0939 206.007 34.0958H204.579L204.664 36.067ZM204.664 39.0952H206.249C207.292 39.0952 207.82 38.7238 207.82 37.9811C207.823 37.8059 207.794 37.6316 207.734 37.4669C207.672 37.3286 207.574 37.21 207.449 37.124C207.293 37.0196 207.118 36.9468 206.935 36.9098C206.669 36.8848 206.401 36.8848 206.135 36.9098H204.707L204.664 39.0952Z" fill="#9FA0A0"/>
<path d="M218.7 37.9811C218.723 38.2513 218.678 38.5227 218.571 38.7718C218.464 39.0208 218.298 39.2398 218.086 39.4095C217.55 39.7743 216.905 39.9456 216.259 39.8951H213.803V33.3388H216.13C216.453 33.3372 216.774 33.3756 217.087 33.4531C217.339 33.5157 217.577 33.6273 217.787 33.7816C217.975 33.919 218.127 34.1004 218.229 34.3101C218.333 34.5288 218.387 34.768 218.386 35.01C218.403 35.3198 218.319 35.6266 218.147 35.8843C217.974 36.142 217.722 36.3365 217.43 36.4384C217.633 36.4842 217.827 36.5665 218.001 36.6812C218.153 36.7769 218.288 36.8977 218.401 37.0383C218.499 37.1835 218.576 37.3423 218.629 37.5097C218.679 37.6617 218.703 37.8211 218.7 37.9811ZM214.659 36.067H216.087C216.454 36.0909 216.82 36.0117 217.144 35.8385C217.262 35.7495 217.355 35.632 217.415 35.4971C217.475 35.3622 217.5 35.2142 217.487 35.0671C217.486 34.926 217.462 34.786 217.415 34.6529C217.362 34.5289 217.273 34.4242 217.158 34.3529C217.022 34.2581 216.865 34.1947 216.701 34.1673C216.472 34.117 216.237 34.093 216.002 34.0958H214.574L214.659 36.067ZM214.659 39.0952H216.244C217.287 39.0952 217.815 38.7238 217.815 37.9811C217.818 37.8059 217.789 37.6316 217.729 37.4669C217.667 37.3286 217.569 37.21 217.444 37.124C217.288 37.0196 217.114 36.9468 216.93 36.9098C216.664 36.8848 216.396 36.8848 216.13 36.9098H214.702L214.659 39.0952Z" fill="#9FA0A0"/>
<path d="M228.696 39.8808H223.798V33.3245H228.553V34.0958H224.655V36.0956H228.296V36.8812H224.655V39.0952H228.696V39.8808Z" fill="#9FA0A0"/>
<path d="M238.977 39.8809H238.049L237.42 38.1383C237.367 37.9843 237.29 37.8396 237.192 37.7097C237.105 37.5799 236.993 37.4683 236.863 37.3812C236.743 37.2839 236.608 37.2067 236.464 37.1527C236.306 37.107 236.143 37.0829 235.978 37.0812H234.365V39.938H233.494V33.3817H236.349C236.67 33.3786 236.991 33.4073 237.306 33.4674C237.571 33.5255 237.823 33.632 238.049 33.7817C238.251 33.9234 238.414 34.1154 238.52 34.3387C238.636 34.6141 238.689 34.9116 238.677 35.21C238.681 35.4285 238.647 35.6459 238.577 35.8528C238.508 36.0363 238.407 36.2057 238.277 36.3528C238.142 36.5027 237.983 36.6283 237.806 36.7241C237.622 36.8258 237.425 36.9027 237.22 36.9527C237.474 37.0595 237.701 37.2233 237.881 37.4313C238.062 37.6393 238.193 37.8861 238.263 38.1525L238.977 39.8809ZM234.365 36.2956H236.349C236.578 36.3135 236.807 36.3135 237.035 36.2956C237.21 36.2671 237.376 36.1987 237.52 36.0956C237.645 36.0091 237.743 35.8907 237.806 35.7528C237.868 35.5837 237.897 35.4043 237.892 35.2243C237.892 34.4673 237.42 34.0959 236.464 34.0959H234.379L234.365 36.2956Z" fill="#9FA0A0"/>
<path d="M259.039 33.3245L257.212 39.8808H256.341L254.784 34.1673L253.213 39.8808H252.371L250.629 33.3245H251.543L252.856 38.6524L254.284 33.3245H255.312L256.74 38.6524L258.068 33.3245H259.039Z" fill="#9FA0A0"/>
<path d="M268.677 39.8808H263.779V33.3245H268.534V34.0958H264.636V36.0956H268.277V36.8812H264.636V39.0952H268.677V39.8808Z" fill="#9FA0A0"/>
<path d="M275.232 39.8808H274.36V33.3245H275.232V39.8808Z" fill="#9FA0A0"/>
<path d="M286.098 39.8809H285.17L284.541 38.1383C284.488 37.9843 284.411 37.8396 284.313 37.7097C284.226 37.5799 284.114 37.4683 283.985 37.3812C283.865 37.2839 283.73 37.2067 283.585 37.1527C283.427 37.107 283.264 37.0829 283.099 37.0812H281.486V39.938H280.615V33.3817H283.471C283.792 33.3786 284.112 33.4073 284.427 33.4674C284.692 33.5255 284.944 33.632 285.17 33.7817C285.372 33.9234 285.535 34.1154 285.641 34.3387C285.757 34.6141 285.81 34.9116 285.798 35.21C285.802 35.4285 285.768 35.6459 285.698 35.8528C285.629 36.0363 285.528 36.2057 285.398 36.3528C285.264 36.5027 285.104 36.6283 284.927 36.7241C284.743 36.8258 284.546 36.9027 284.342 36.9527C284.596 37.0595 284.822 37.2233 285.002 37.4313C285.183 37.6393 285.314 37.8861 285.384 38.1525L286.098 39.8809ZM281.486 36.2956H283.471C283.699 36.3135 283.928 36.3135 284.156 36.2956C284.331 36.2671 284.497 36.1987 284.641 36.0956C284.766 36.0091 284.864 35.8907 284.927 35.7528C284.989 35.5837 285.018 35.4043 285.013 35.2243C285.013 34.4673 284.542 34.0959 283.585 34.0959H281.5L281.486 36.2956Z" fill="#9FA0A0"/>
<path d="M85.878 0.342773C90.3759 0.342773 93.4316 1.58547 95.0165 4.08516C96.6319 6.69933 97.4553 9.72585 97.3869 12.7984C97.4854 15.9868 96.532 19.1191 94.6739 21.7116C92.8747 24.1589 89.8666 25.3778 85.6495 25.3683H82.2939C81.2077 25.3835 80.1562 24.9852 79.3524 24.2542C78.9361 23.8737 78.608 23.4068 78.3909 22.8862C78.1739 22.3656 78.0732 21.8038 78.0959 21.2402V0.342773H85.878ZM83.9217 21.4259H86.5634C87.2895 21.4141 88.0007 21.2178 88.6301 20.8555C89.2595 20.4932 89.7866 19.9768 90.1617 19.3547C91.2647 17.3184 91.7603 15.0082 91.5896 12.6984C91.7747 10.4759 91.3241 8.24657 90.2902 6.27065C89.9241 5.69607 89.4168 5.22496 88.8169 4.90237C88.2169 4.57978 87.5443 4.41646 86.8632 4.42801H83.936L83.9217 21.4259Z" fill="#006FBC"/>
<path d="M112.608 0.228638L122.875 25.3684H116.735L114.893 20.9547H106.325L104.483 25.3684H98.3433L108.624 0.228638H112.608ZM113.322 16.1552L110.595 8.72757L107.853 16.1552H113.322Z" fill="#006FBC"/>
<path d="M139.253 0.342773V4.35656H130.143V10.3987H138.353V14.4125H130.143V21.4259H139.581V25.4397H128.8C127.624 25.4578 126.487 25.0172 125.63 24.2113C125.196 23.7937 124.854 23.289 124.628 22.7303C124.401 22.1716 124.295 21.5713 124.317 20.9688V0.342773H139.253Z" fill="#006FBC"/>
<path d="M148.706 0.342773C153.204 0.342773 156.259 1.58547 157.844 4.08516C159.46 6.69933 160.283 9.72585 160.215 12.7984C160.313 15.9868 159.36 19.1191 157.502 21.7116C155.702 24.1589 152.694 25.3778 148.477 25.3683H145.122C144.035 25.3835 142.984 24.9852 142.18 24.2542C141.764 23.8737 141.436 23.4068 141.219 22.8862C141.002 22.3656 140.901 21.8038 140.924 21.2402V0.342773H148.706ZM146.749 21.4259H149.391C150.117 21.4141 150.828 21.2178 151.458 20.8555C152.087 20.4932 152.614 19.9768 152.989 19.3547C154.092 17.3184 154.588 15.0082 154.417 12.6984C154.602 10.4759 154.152 8.24657 153.118 6.27065C152.752 5.69607 152.244 5.22496 151.645 4.90237C151.045 4.57978 150.372 4.41646 149.691 4.42801H146.835L146.749 21.4259Z" fill="#006FBC"/>
<path d="M180.219 3.79954C181.919 6.48747 182.783 9.61903 182.704 12.7984C182.797 16.0592 181.841 19.2638 179.977 21.9401C179.081 23.1761 177.891 24.1686 176.514 24.8272C175.138 25.4858 173.618 25.7896 172.095 25.7111C168.182 25.7111 165.436 24.4065 163.855 21.7973C162.244 19.0767 161.423 15.9602 161.485 12.7984C161.479 9.7541 162.267 6.76081 163.77 4.11379C165.298 1.37127 168.054 0 172.095 0C175.845 0 178.553 1.26652 180.219 3.79954ZM168.553 6.37064C167.621 8.38007 167.19 10.5857 167.297 12.7984C167.159 15.087 167.621 17.3719 168.639 19.4262C168.938 20.0972 169.424 20.6672 170.04 21.0673C170.656 21.4673 171.375 21.6802 172.109 21.6802C172.843 21.6802 173.562 21.4673 174.177 21.0673C174.793 20.6672 175.28 20.0972 175.579 19.4262C176.578 17.3561 177.03 15.0645 176.892 12.7699C177.034 10.4934 176.582 8.21909 175.579 6.17068C175.255 5.52085 174.759 4.97294 174.144 4.58732C173.529 4.2017 172.82 3.99335 172.095 3.98524C171.336 3.99339 170.596 4.22364 169.967 4.64756C169.338 5.07148 168.846 5.67049 168.553 6.37064Z" fill="#006FBC"/>
<path d="M203.508 0.342773V4.35656H194.413V10.3987H202.623V14.4125H194.413V21.4259H203.851V25.4397H193.07C191.894 25.4578 190.757 25.0172 189.9 24.2113C189.466 23.7937 189.124 23.289 188.898 22.7303C188.671 22.1716 188.565 21.5713 188.587 20.9688V0.342773H203.508Z" fill="#8FD3F5"/>
<path d="M212.49 0.342773L219.215 14.9267V0.342773H225.041V25.3683H218.83L212.076 11.6271V25.3683H206.25V0.342773H212.49Z" fill="#8FD3F5"/>
<path d="M248.973 0.342773V4.35656H241.976V25.3683H236.165V4.35656H229.211V0.342773H248.973Z" fill="#00A0E9"/>
<path d="M266.337 0.342773V4.35656H257.227V10.3987H265.437V14.4125H257.227V21.4259H266.665V25.4397H255.884C254.708 25.4578 253.571 25.0172 252.714 24.2113C252.28 23.7937 251.938 23.289 251.712 22.7303C251.485 22.1716 251.379 21.5713 251.401 20.9688V0.342773H266.337Z" fill="#00A0E9"/>
<path d="M286.399 1.94271C287.25 2.5137 287.953 3.27921 288.449 4.17589C288.946 5.07257 289.222 6.07467 289.254 7.09924H283.329C283.216 6.25446 282.787 5.48378 282.129 4.94235C281.334 4.35794 280.358 4.07451 279.373 4.14245C278.619 4.16046 277.882 4.36897 277.231 4.74859C276.579 5.12821 276.034 5.66663 275.647 6.31364C274.525 8.15826 273.993 10.3006 274.119 12.4557C274.003 14.7971 274.521 17.1263 275.618 19.1978C275.98 19.9319 276.536 20.553 277.226 20.9936C277.915 21.4342 278.712 21.6776 279.53 21.6975C280.669 21.7445 281.781 21.3447 282.629 20.5833C283.514 19.6867 284.025 18.4864 284.057 17.2266H289.983C289.927 18.3699 289.645 19.4908 289.155 20.5252C288.665 21.5596 287.976 22.487 287.127 23.2544C284.843 25.0067 282.001 25.8711 279.129 25.6873C276.256 25.5034 273.548 24.2837 271.506 22.2545C269.279 19.5417 268.157 16.0884 268.364 12.5843C268.364 8.51335 269.478 5.4423 271.706 3.2997C272.799 2.24826 274.09 1.4251 275.505 0.878214C276.919 0.331326 278.429 0.0716416 279.945 0.114365C282.233 0.0458509 284.486 0.684261 286.399 1.94271Z" fill="#00A0E9"/>
<path fill-rule="evenodd" clip-rule="evenodd" d="M0.0317383 15.7124H71.3127L62.4454 24.2828H10.8695L0.0317383 15.7124Z" fill="url(#paint0_linear_83_3303)"/>
<path fill-rule="evenodd" clip-rule="evenodd" d="M69.2851 0H48.9946C45.9352 0.142563 42.9585 1.04018 40.3301 2.61281C37.7016 4.18545 35.503 6.38424 33.9302 9.01318C31.8116 12.479 30.7518 16.4888 30.8812 20.5492C31.0106 24.6096 32.3235 28.5437 34.6584 31.8675C38.0568 36.2813 42.3976 39.938 52.0503 39.938C61.7029 39.938 71.8267 34.7243 71.8267 21.0403C71.8025 19.2126 71.6113 17.391 71.2556 15.5981L62.4454 24.1685C62.4454 24.1685 61.4887 31.1676 53.1212 31.1676C44.7537 31.1676 42.3262 24.0256 42.3262 19.6262C42.3262 15.2267 45.2963 8.91318 52.3216 8.91318H69.2851V0Z" fill="url(#paint1_linear_83_3303)"/>
<path fill-rule="evenodd" clip-rule="evenodd" d="M0.189142 0V8.89892H15.6248C15.6248 8.89892 26.4626 9.31313 26.4626 20.0261C26.4626 30.7391 16.8528 31.0819 10.9555 31.0819L0.0463867 39.3809H12.5405C12.5405 39.3809 23.9638 39.8094 31.8458 33.6673C39.7278 27.5252 37.9287 14.1268 33.9876 8.68463C30.0466 3.24244 22.5644 0.114253 14.7538 0.114253L0.189142 0Z" fill="url(#paint2_linear_83_3303)"/>
<path fill-rule="evenodd" clip-rule="evenodd" d="M0.0318711 15.6266L10.8839 24.197V31.3389L0.0175781 39.4379L0.0318711 15.6266Z" fill="url(#paint3_linear_83_3303)"/>
<defs>
<linearGradient id="paint0_linear_83_3303" x1="0.0317383" y1="19.9405" x2="71.3127" y2="19.9405" gradientUnits="userSpaceOnUse">
<stop offset="0.08" stop-color="#08347E"/>
<stop offset="0.25" stop-color="#0787CA"/>
<stop offset="0.3" stop-color="#0679BD"/>
<stop offset="0.43" stop-color="#05549B"/>
<stop offset="0.54" stop-color="#043E87"/>
<stop offset="0.61" stop-color="#04367F"/>
<stop offset="0.8" stop-color="#1B96D5"/>
<stop offset="0.99" stop-color="#1B206A"/>
</linearGradient>
<linearGradient id="paint1_linear_83_3303" x1="30.8459" y1="19.9975" x2="71.8267" y2="19.9975" gradientUnits="userSpaceOnUse">
<stop stop-color="#0E317C"/>
<stop offset="0.09" stop-color="#0C3C87"/>
<stop offset="0.24" stop-color="#065BA3"/>
<stop offset="0.39" stop-color="#007DC3"/>
<stop offset="0.72" stop-color="#0071BA"/>
<stop offset="1" stop-color="#0C89CC"/>
</linearGradient>
<linearGradient id="paint2_linear_83_3303" x1="0.0463867" y1="19.6976" x2="37.3289" y2="19.6976" gradientUnits="userSpaceOnUse">
<stop stop-color="#0787CA"/>
<stop offset="0.06" stop-color="#067CC2"/>
<stop offset="0.26" stop-color="#0357A8"/>
<stop offset="0.42" stop-color="#024198"/>
<stop offset="0.52" stop-color="#013992"/>
<stop offset="0.71" stop-color="#004398"/>
<stop offset="1" stop-color="#0C89CC"/>
</linearGradient>
<linearGradient id="paint3_linear_83_3303" x1="-3.89489" y1="18.3834" x2="7.26218" y2="34.3207" gradientUnits="userSpaceOnUse">
<stop stop-color="#0787CA"/>
<stop offset="0.15" stop-color="#0474BD"/>
<stop offset="0.38" stop-color="#015EAD"/>
<stop offset="0.52" stop-color="#0056A7"/>
<stop offset="1" stop-color="#0C89CC"/>
</linearGradient>
</defs>
</svg>
