<svg width="162" height="100" viewBox="0 0 162 100" fill="none" xmlns="http://www.w3.org/2000/svg">
<path d="M2.28928 99.9116H1.69385V95.1655H2.32429L2.28928 99.9116Z" fill="#9FA0A0"/>
<path d="M10.3104 99.9116H9.66233L7.17551 96.1638V99.9116H6.58008V95.1655H7.22805L9.71487 98.9133V95.1655H10.3104V99.9116Z" fill="#9FA0A0"/>
<path d="M17.7357 95.726H15.1613V97.197H17.4555V97.7575H15.2314V99.9116H14.6184V95.1655H17.8058L17.7357 95.726Z" fill="#9FA0A0"/>
<path d="M24.6883 99.9116H21.7461V95.1655H22.3765V99.3512H24.6883V99.9116Z" fill="#9FA0A0"/>
<path d="M32.4993 99.9116H31.7813L31.2384 98.4755H29.2419L28.7165 99.9116H28.051L29.8899 95.1655H30.5554L32.4993 99.9116ZM31.0458 97.9676L30.2227 95.761L29.417 97.9676H31.0458Z" fill="#9FA0A0"/>
<path d="M39.5568 95.726H37.9806V99.9116H37.3501V95.726H35.7915V95.1655H39.5568V95.726Z" fill="#9FA0A0"/>
<path d="M47.2274 99.9116H46.5269L45.984 98.4755H43.9875L43.4621 99.9116H42.7966L44.5479 95.1655H45.2309L47.2274 99.9116ZM45.7913 97.9676L44.9507 95.761L44.1451 97.9676H45.7913Z" fill="#9FA0A0"/>
<path d="M54.513 98.5281C54.5276 98.7227 54.4955 98.918 54.4193 99.0978C54.3432 99.2775 54.2252 99.4364 54.0752 99.5613C53.6829 99.8229 53.2145 99.9462 52.7442 99.9116H50.9929V95.1656H52.7442C52.9748 95.1643 53.2045 95.1937 53.4273 95.2532C53.6118 95.2987 53.7847 95.3822 53.9351 95.4983C54.0729 95.6009 54.1865 95.7324 54.2678 95.8836C54.3395 96.037 54.3754 96.2047 54.3729 96.374C54.3769 96.5929 54.3135 96.8077 54.1914 96.9894C54.0692 97.1711 53.8941 97.3108 53.6899 97.3898C53.8326 97.4266 53.9685 97.4857 54.0928 97.5648C54.206 97.6285 54.3021 97.7187 54.3729 97.8276C54.4547 97.9245 54.5145 98.038 54.5481 98.1603C54.5535 98.284 54.5418 98.4077 54.513 98.5281ZM51.5884 97.1445H52.6567C52.923 97.162 53.1892 97.1076 53.4273 96.9869C53.5123 96.922 53.5794 96.8365 53.6223 96.7385C53.6652 96.6404 53.6825 96.533 53.6724 96.4265C53.6905 96.3281 53.6905 96.2272 53.6724 96.1288C53.6403 96.0405 53.5784 95.9661 53.4973 95.9186C53.3997 95.845 53.2854 95.7969 53.1646 95.7785C52.996 95.7565 52.8253 95.7565 52.6567 95.7785H51.6584L51.5884 97.1445ZM51.5884 99.3512H52.7442C53.4973 99.3512 53.8651 99.071 53.8651 98.5281C53.8847 98.4122 53.8847 98.2937 53.8651 98.1778C53.8152 98.0758 53.7435 97.9861 53.6549 97.9151C53.5426 97.8449 53.4177 97.7973 53.2871 97.775C53.095 97.7545 52.9013 97.7545 52.7092 97.775H51.6409L51.5884 99.3512Z" fill="#9FA0A0"/>
<path d="M61.4833 99.9116H58.5586V95.1655H59.1716V99.3512H61.4833V99.9116Z" fill="#9FA0A0"/>
<path d="M68.9438 99.9116H65.4412V95.1655H68.9438V95.726H66.1242V97.1795H68.7511V97.7399H66.1242V99.3512H69.0488L68.9438 99.9116Z" fill="#9FA0A0"/>
<path d="M84.8454 99.9117H84.1799L83.7245 98.6507C83.6791 98.5423 83.6264 98.4369 83.5669 98.3355C83.4939 98.2507 83.4117 98.1743 83.3217 98.1078C83.2323 98.0385 83.1316 97.9851 83.024 97.9502C82.9145 97.9254 82.8008 97.9254 82.6913 97.9502H81.5179V99.9817H80.8875V95.2357H82.989C83.2217 95.2071 83.4569 95.2071 83.6895 95.2357C83.8769 95.2702 84.0555 95.3416 84.2149 95.4458C84.3627 95.5568 84.4826 95.7007 84.5652 95.8661C84.6386 96.068 84.6742 96.2818 84.6703 96.4966C84.6983 96.6471 84.6983 96.8015 84.6703 96.952C84.6215 97.0855 84.5504 97.2099 84.4601 97.3197C84.3589 97.4263 84.2405 97.5151 84.1098 97.5824C83.9793 97.6615 83.8376 97.7206 83.6895 97.7575C83.8737 97.8313 84.0379 97.9474 84.1687 98.0965C84.2996 98.2456 84.3934 98.4235 84.4426 98.6157L84.8454 99.9117ZM81.5179 97.3197H82.919C83.0818 97.3399 83.2465 97.3399 83.4093 97.3197C83.5333 97.3033 83.6525 97.2616 83.7596 97.1971C83.8481 97.1261 83.9199 97.0364 83.9698 96.9344C83.991 96.8069 83.991 96.6767 83.9698 96.5491C83.9698 96.0062 83.6195 95.7436 82.9365 95.7436H81.4479L81.5179 97.3197Z" fill="#9FA0A0"/>
<path d="M90.6948 99.9991C90.4527 100 90.2115 99.9709 89.9768 99.9116C89.7937 99.8714 89.6208 99.7938 89.4689 99.6839C89.3372 99.5959 89.2242 99.4828 89.1361 99.3512C89.0543 99.2136 88.9896 99.0666 88.9435 98.9133C88.9044 98.7518 88.8751 98.5881 88.8559 98.423C88.8469 98.2538 88.8469 98.0843 88.8559 97.9151V95.1655H89.4689V97.8975C89.4647 98.1571 89.4942 98.4161 89.5565 98.6681C89.5963 98.8407 89.674 99.0023 89.7841 99.141C89.8991 99.2469 90.0369 99.3247 90.1869 99.3686C90.3615 99.3876 90.5377 99.3876 90.7123 99.3686C90.8922 99.3969 91.0754 99.3969 91.2552 99.3686C91.4061 99.3395 91.5422 99.2591 91.6405 99.141C91.7595 99.0125 91.8439 98.8558 91.8857 98.6857C91.9176 98.4298 91.9176 98.1709 91.8857 97.9151V95.1831H92.5161V97.9326C92.5165 98.2267 92.4872 98.5201 92.4286 98.8083C92.384 99.0454 92.2818 99.2679 92.1309 99.4562C91.9808 99.6471 91.7807 99.7925 91.5529 99.8765C91.2757 99.9649 90.9857 100.006 90.6948 99.9991Z" fill="#9FA0A0"/>
<path d="M100.345 98.528C100.357 98.7242 100.322 98.9204 100.243 99.1002C100.164 99.2801 100.043 99.4382 99.8894 99.5613C99.4994 99.828 99.0292 99.9518 98.5584 99.9116H96.8071V95.1655H98.5584C98.7947 95.1654 99.03 95.1949 99.2589 95.2531C99.442 95.3025 99.6143 95.3857 99.7668 95.4983C99.9039 95.5969 100.013 95.7297 100.082 95.8836C100.154 96.037 100.19 96.2046 100.187 96.3739C100.191 96.5928 100.128 96.8077 100.006 96.9894C99.8834 97.171 99.7084 97.3108 99.5041 97.3897C99.6479 97.4234 99.7843 97.4826 99.9069 97.5648C100.025 97.6284 100.127 97.7183 100.205 97.8275C100.275 97.9293 100.328 98.0417 100.362 98.1603C100.382 98.2828 100.376 98.4079 100.345 98.528ZM97.4026 97.1445H98.4709C98.7373 97.1638 99.004 97.1092 99.2415 96.9869C99.3265 96.922 99.3936 96.8365 99.4365 96.7384C99.4794 96.6404 99.4967 96.533 99.4866 96.4265C99.5047 96.328 99.5047 96.2272 99.4866 96.1288C99.4486 96.044 99.388 95.9713 99.3115 95.9186C99.2123 95.8478 99.0986 95.8 98.9787 95.7785C98.8042 95.7576 98.6279 95.7576 98.4534 95.7785H97.4551L97.4026 97.1445ZM97.4026 99.3512H98.5584C99.3115 99.3512 99.6968 99.0709 99.6968 98.528C99.7167 98.4121 99.7167 98.2937 99.6968 98.1778C99.6586 98.0689 99.5845 97.9762 99.4866 97.9151C99.376 97.8416 99.2503 97.7938 99.1189 97.775C98.9268 97.7544 98.733 97.7544 98.5409 97.775H97.4726L97.4026 99.3512Z" fill="#9FA0A0"/>
<path d="M107.927 98.528C107.94 98.7242 107.905 98.9204 107.826 99.1002C107.747 99.2801 107.625 99.4382 107.472 99.5613C107.082 99.828 106.612 99.9518 106.141 99.9116H104.39V95.1655H106.141C106.377 95.1654 106.613 95.1949 106.842 95.2531C107.025 95.3025 107.197 95.3857 107.35 95.4983C107.487 95.5969 107.595 95.7297 107.665 95.8836C107.736 96.037 107.772 96.2046 107.77 96.3739C107.774 96.5928 107.71 96.8077 107.588 96.9894C107.466 97.171 107.291 97.3108 107.087 97.3897C107.231 97.4234 107.367 97.4826 107.49 97.5648C107.604 97.633 107.705 97.7221 107.787 97.8275C107.857 97.9293 107.911 98.0417 107.945 98.1603C107.964 98.2828 107.958 98.4079 107.927 98.528ZM104.985 97.1445H106.054C106.32 97.1638 106.587 97.1092 106.824 96.9869C106.909 96.922 106.976 96.8365 107.019 96.7384C107.062 96.6404 107.079 96.533 107.069 96.4265C107.087 96.328 107.087 96.2272 107.069 96.1288C107.031 96.044 106.971 95.9713 106.894 95.9186C106.795 95.8478 106.681 95.8 106.561 95.7785C106.387 95.7576 106.211 95.7576 106.036 95.7785H105.02L104.985 97.1445ZM104.985 99.3512H106.141C106.894 99.3512 107.262 99.0709 107.262 98.528C107.282 98.4121 107.282 98.2937 107.262 98.1778C107.224 98.0689 107.15 97.9762 107.052 97.9151C106.941 97.8416 106.816 97.7938 106.684 97.775C106.492 97.7544 106.298 97.7544 106.106 97.775H105.02L104.985 99.3512Z" fill="#9FA0A0"/>
<path d="M115.528 99.9116H112.026V95.1655H115.528V95.726H112.709V97.1795H115.336V97.7399H112.709V99.3512H115.528V99.9116Z" fill="#9FA0A0"/>
<path d="M123.497 99.9118H122.814L122.376 98.6509C122.324 98.5422 122.266 98.4369 122.201 98.3356C122.134 98.2512 122.058 98.1748 121.973 98.1079C121.882 98.042 121.781 97.9889 121.675 97.9503C121.56 97.9257 121.441 97.9257 121.325 97.9503H120.152V99.9819H119.539V95.2358H121.64C121.867 95.2082 122.097 95.2082 122.323 95.2358C122.515 95.2751 122.698 95.3461 122.866 95.446C123.013 95.5531 123.129 95.6985 123.199 95.8663C123.288 96.0641 123.33 96.28 123.322 96.4968C123.35 96.6473 123.35 96.8017 123.322 96.9521C123.274 97.0899 123.196 97.2154 123.094 97.3199C122.999 97.4261 122.887 97.515 122.761 97.5826C122.625 97.6619 122.477 97.7209 122.323 97.7577C122.51 97.8304 122.677 97.9459 122.811 98.095C122.945 98.244 123.042 98.4224 123.094 98.6158L123.497 99.9118ZM120.152 97.3199H121.553C121.722 97.3399 121.892 97.3399 122.061 97.3199C122.185 97.3035 122.304 97.2618 122.411 97.1973C122.499 97.13 122.566 97.0388 122.604 96.9346C122.633 96.8079 122.633 96.676 122.604 96.5493C122.604 96.0064 122.271 95.7437 121.588 95.7437H120.082L120.152 97.3199Z" fill="#9FA0A0"/>
<path d="M141.045 95.1655L139.731 99.9116H139.136L137.998 95.7785L136.859 99.9116H136.246L134.933 95.1655H135.598L136.544 99.0359L137.63 95.1655H138.295L139.364 99.0359L140.327 95.1655H141.045Z" fill="#9FA0A0"/>
<path d="M148.348 99.9116H144.845V95.1655H148.348V95.726H145.546V97.1795H148.172V97.7399H145.546V99.3512H148.453L148.348 99.9116Z" fill="#9FA0A0"/>
<path d="M153.111 99.9116H152.463V95.1655H153.111V99.9116Z" fill="#9FA0A0"/>
<path d="M161.36 99.9117H160.677L160.222 98.6507C160.183 98.5391 160.13 98.4331 160.064 98.3355C159.995 98.2465 159.912 98.1696 159.819 98.1078C159.732 98.0348 159.63 97.9811 159.521 97.9502C159.412 97.9241 159.298 97.9241 159.188 97.9502H158.015V99.9817H157.402V95.2357H159.486C159.719 95.2071 159.954 95.2071 160.186 95.2357C160.378 95.2749 160.561 95.346 160.729 95.4458C160.872 95.5574 160.986 95.7015 161.062 95.8661C161.151 96.0639 161.193 96.2798 161.185 96.4966C161.184 96.6525 161.155 96.807 161.097 96.952C161.055 97.0886 160.984 97.2142 160.887 97.3197C160.792 97.4259 160.68 97.5148 160.554 97.5824C160.416 97.6587 160.269 97.7175 160.116 97.7575C160.303 97.8302 160.47 97.9457 160.604 98.0948C160.738 98.2438 160.835 98.4223 160.887 98.6157L161.36 99.9117ZM158.015 97.3197H159.416C159.585 97.3397 159.755 97.3397 159.924 97.3197C160.047 97.3003 160.166 97.2588 160.274 97.1971C160.362 97.1298 160.429 97.0387 160.467 96.9344C160.496 96.8077 160.496 96.6758 160.467 96.5491C160.467 96.0062 160.134 95.7436 159.451 95.7436H157.945L158.015 97.3197Z" fill="#9FA0A0"/>
<path d="M6.54491 71.3129C10.0475 71.3129 12.2717 72.2586 13.5501 74.1675C14.7637 76.1575 15.3722 78.4576 15.3014 80.7874C15.375 83.2095 14.6556 85.5893 13.2524 87.5649C12.4135 88.5424 11.352 89.3041 10.1573 89.7856C8.96256 90.2672 7.66958 90.4546 6.3873 90.332H3.83042C3.0096 90.3421 2.21527 90.0418 1.60629 89.4914C1.28596 89.2041 1.03339 88.8492 0.866819 88.4525C0.70025 88.0557 0.623807 87.627 0.643043 87.1972V71.3129H6.54491ZM5.05635 87.2847H7.07033C7.62297 87.2798 8.16495 87.1321 8.64366 86.856C9.12236 86.5798 9.52152 86.1845 9.80236 85.7085C10.634 84.1643 11.0048 82.4137 10.8706 80.6648C11.013 78.9761 10.6729 77.2817 9.8899 75.7787C9.61121 75.3413 9.22497 74.9829 8.76808 74.7376C8.31119 74.4923 7.79897 74.3683 7.28048 74.3776H5.05635V87.2847Z" fill="#006FBC"/>
<path d="M26.4744 71.2252L34.2852 90.3319H29.6093L28.2083 86.9869H21.6759L20.2748 90.3319H15.5989L23.4097 71.2252H26.4744ZM27.0349 83.3267L24.9508 77.6875L22.8668 83.3267H27.0349Z" fill="#006FBC"/>
<path d="M46.7021 71.3129V74.3777H39.7844V78.9661H46.0191V82.0134H39.7844V87.2673H46.9648V90.3145H38.7512C37.8626 90.3207 37.005 89.9889 36.3519 89.3864C36.0191 89.0697 35.7579 88.6855 35.5857 88.2596C35.4135 87.8337 35.3344 87.376 35.3537 86.917V71.2954L46.7021 71.3129Z" fill="#006FBC"/>
<path d="M55.4063 71.3129C58.9089 71.3129 61.1505 72.2586 62.4115 74.1675C63.6251 76.1575 64.2335 78.4576 64.1628 80.7874C64.2391 83.2125 63.5127 85.595 62.0962 87.5649C61.2592 88.5448 60.198 89.308 59.0028 89.7897C57.8076 90.2715 56.5137 90.4575 55.2311 90.332H52.6917C51.8658 90.3413 51.0662 90.0415 50.4501 89.4914C50.1348 89.2009 49.8869 88.8451 49.7235 88.4489C49.5602 88.0526 49.4854 87.6254 49.5044 87.1972V71.3129H55.4063ZM53.9177 87.2847H55.9842C56.5372 87.2816 57.0798 87.1346 57.5588 86.8583C58.0378 86.5819 58.4367 86.1857 58.7162 85.7085C59.5549 84.1664 59.9318 82.4154 59.802 80.6648C59.9499 78.9738 59.6031 77.2762 58.8037 75.7787C58.5291 75.3415 58.1462 74.9829 57.692 74.7374C57.2379 74.4919 56.728 74.368 56.2119 74.3776H53.9702L53.9177 87.2847Z" fill="#006FBC"/>
<path d="M79.5216 73.9397C80.8141 75.9855 81.4722 78.3681 81.413 80.7873C81.5071 83.288 80.7747 85.75 79.3289 87.7925C78.6545 88.7339 77.754 89.4904 76.7103 89.9924C75.6667 90.4943 74.5135 90.7255 73.357 90.6646C72.1398 90.7873 70.9123 90.5747 69.8072 90.05C68.7021 89.5252 67.7615 88.7082 67.0874 87.6874C65.8775 85.6188 65.2709 83.2529 65.3361 80.8574C65.3363 78.5418 65.9399 76.2662 67.0874 74.2549C67.7411 73.1879 68.6832 72.3275 69.8049 71.7728C70.9266 71.2182 72.1823 70.9919 73.427 71.1201C74.5999 71.0237 75.7778 71.2327 76.8458 71.7269C77.9139 72.221 78.8358 72.9834 79.5216 73.9397ZM70.66 75.9012C69.952 77.4292 69.6217 79.1049 69.6968 80.7873C69.5949 82.5243 69.9512 84.2576 70.7301 85.8135C70.9597 86.3224 71.3278 86.7564 71.7923 87.0661C72.2568 87.3757 72.799 87.5486 73.357 87.5648C73.9166 87.5458 74.4599 87.372 74.9267 87.0629C75.3935 86.7537 75.7655 86.3213 76.0015 85.8135C76.7473 84.266 77.0907 82.5553 76.9997 80.8398C77.1108 79.1061 76.7667 77.3734 76.0015 75.8136C75.7541 75.323 75.3765 74.9099 74.9101 74.6196C74.4437 74.3292 73.9064 74.1728 73.357 74.1674C72.788 74.1646 72.2303 74.3269 71.7516 74.6346C71.2729 74.9423 70.8937 75.3823 70.66 75.9012Z" fill="#006FBC"/>
<path d="M97.0349 71.3129V74.3777H90.1172V78.9661H96.3518V82.0134H90.1172V87.2673H97.28V90.3145H89.0839C88.1954 90.3207 87.3377 89.9889 86.6847 89.3864C86.3519 89.0697 86.0906 88.6855 85.9185 88.2596C85.7463 87.8337 85.6672 87.376 85.6864 86.917V71.2954L97.0349 71.3129Z" fill="#8FD3F5"/>
<path d="M103.707 71.3129L108.803 82.3986V71.3129H113.234V90.332H108.523L103.427 79.8242V90.332H98.9961V71.3129H103.707Z" fill="#8FD3F5"/>
<path d="M129.854 71.3129V74.3776H124.6V90.332H120.169V74.3776H114.915V71.3129H129.854Z" fill="#00A0E9"/>
<path d="M142.901 71.3129V74.3777H135.896V78.9661H142.131V82.0134H135.896V87.2673H143.076V90.3145H134.968C134.073 90.3252 133.209 89.9931 132.551 89.3864C132.218 89.0697 131.957 88.6855 131.785 88.2596C131.613 87.8337 131.534 87.376 131.553 86.917V71.2954L142.901 71.3129Z" fill="#00A0E9"/>
<path d="M158.067 72.5387C158.706 72.9761 159.234 73.5572 159.608 74.2354C159.982 74.9136 160.192 75.6701 160.221 76.4441H155.703C155.621 75.8041 155.294 75.2207 154.792 74.8154C154.184 74.3734 153.441 74.1567 152.691 74.2024C152.11 74.2272 151.545 74.4013 151.051 74.7081C150.557 75.0149 150.151 75.4439 149.871 75.9537C149.013 77.3502 148.604 78.976 148.698 80.6122C148.611 82.3957 149.011 84.1693 149.854 85.7435C150.128 86.3023 150.551 86.7746 151.076 87.1084C151.601 87.4421 152.208 87.6243 152.831 87.6349C153.259 87.6534 153.687 87.587 154.09 87.4398C154.492 87.2925 154.862 87.0673 155.178 86.7768C155.844 86.099 156.221 85.1882 156.228 84.2374H160.729C160.628 85.9944 159.842 87.6417 158.54 88.8258C156.802 90.1532 154.641 90.8065 152.459 90.6648C150.276 90.5232 148.219 89.5962 146.666 88.0552C144.966 85.9952 144.115 83.3652 144.284 80.6998C144.2 79.4214 144.38 78.1392 144.814 76.9338C145.248 75.7283 145.926 74.6255 146.806 73.6946C147.641 72.8988 148.624 72.2756 149.7 71.8609C150.776 71.4461 151.923 71.248 153.076 71.2778C154.83 71.1682 156.575 71.609 158.067 72.5387Z" fill="#00A0E9"/>
<path fill-rule="evenodd" clip-rule="evenodd" d="M25.3542 24.9911H139.189L125.056 38.6862L42.7446 38.5812L25.3542 24.9911Z" fill="url(#paint0_linear_74_1166)"/>
<path fill-rule="evenodd" clip-rule="evenodd" d="M135.826 0H103.55C98.6601 0.218581 93.9009 1.64644 89.6984 4.1557C85.4959 6.66496 81.9813 10.1773 79.4694 14.3782C76.0697 19.925 74.3707 26.3467 74.5823 32.849C74.794 39.3513 76.9071 45.6489 80.6603 50.9628C86.0718 57.968 93.007 63.8524 108.436 63.8524C123.865 63.8524 139.959 55.5512 139.959 33.6775C139.927 30.7667 139.628 27.8649 139.066 25.0086L125.056 38.6687C125.056 38.6687 123.55 49.8245 110.17 49.8245C96.7898 49.8245 92.9194 38.4761 92.9194 31.4008C92.9194 24.3256 97.6654 14.3081 108.821 14.3081H135.844L135.826 0Z" fill="url(#paint1_linear_74_1166)"/>
<path fill-rule="evenodd" clip-rule="evenodd" d="M25.5992 0V14.2906H50.2399C50.2399 14.2906 67.5603 14.9561 67.5603 32.0663C67.5603 49.1765 52.2189 49.7019 42.7969 49.7019L25.2839 62.9767H45.2312C45.2312 62.9767 63.5673 63.6422 76.0716 53.7824C88.5759 43.9226 85.7913 22.5743 79.5742 13.8878C73.3571 5.20137 61.2206 0.157611 48.8564 0.157611L25.5992 0Z" fill="url(#paint2_linear_74_1166)"/>
<path fill-rule="evenodd" clip-rule="evenodd" d="M25.3539 24.9559L42.6742 38.546V49.9295L25.3188 62.8716L25.3539 24.9559Z" fill="url(#paint3_linear_74_1166)"/>
<defs>
<linearGradient id="paint0_linear_74_1166" x1="25.3542" y1="31.8387" x2="139.171" y2="31.8387" gradientUnits="userSpaceOnUse">
<stop offset="0.08" stop-color="#08347E"/>
<stop offset="0.25" stop-color="#0787CA"/>
<stop offset="0.3" stop-color="#0679BD"/>
<stop offset="0.43" stop-color="#05549B"/>
<stop offset="0.54" stop-color="#043E87"/>
<stop offset="0.61" stop-color="#04367F"/>
<stop offset="0.8" stop-color="#1B96D5"/>
<stop offset="0.99" stop-color="#1B206A"/>
</linearGradient>
<linearGradient id="paint1_linear_74_1166" x1="74.5658" y1="31.9262" x2="139.994" y2="31.9262" gradientUnits="userSpaceOnUse">
<stop stop-color="#0E317C"/>
<stop offset="0.09" stop-color="#0C3C87"/>
<stop offset="0.24" stop-color="#065BA3"/>
<stop offset="0.39" stop-color="#007DC3"/>
<stop offset="0.72" stop-color="#0071BA"/>
<stop offset="1" stop-color="#0C89CC"/>
</linearGradient>
<linearGradient id="paint2_linear_74_1166" x1="25.3715" y1="31.4533" x2="84.9157" y2="31.4533" gradientUnits="userSpaceOnUse">
<stop stop-color="#0787CA"/>
<stop offset="0.06" stop-color="#067CC2"/>
<stop offset="0.26" stop-color="#0357A8"/>
<stop offset="0.42" stop-color="#024198"/>
<stop offset="0.52" stop-color="#013992"/>
<stop offset="0.71" stop-color="#004398"/>
<stop offset="1" stop-color="#0C89CC"/>
</linearGradient>
<linearGradient id="paint3_linear_74_1166" x1="19.0667" y1="29.3517" x2="36.8949" y2="54.7981" gradientUnits="userSpaceOnUse">
<stop stop-color="#0787CA"/>
<stop offset="0.15" stop-color="#0474BD"/>
<stop offset="0.38" stop-color="#015EAD"/>
<stop offset="0.52" stop-color="#0056A7"/>
<stop offset="1" stop-color="#0C89CC"/>
</linearGradient>
</defs>
</svg>
