<svg width="24" height="24" viewBox="0 0 24 24" fill="none" xmlns="http://www.w3.org/2000/svg">
<path d="M14.1984 21.3969C15.4491 20.7246 17.0371 20.7385 18.2726 21.4408L18.2736 21.4399C19.559 22.1611 21.2214 22.1612 22.507 21.4399C22.9885 21.1697 23.598 21.3413 23.8683 21.8227C24.1385 22.3043 23.9671 22.9138 23.4855 23.184C21.5921 24.2463 19.1874 24.2465 17.2941 23.184L17.2882 23.1811C16.6825 22.8351 15.8743 22.8111 15.2404 23.1088L15.0705 23.2045C15.0297 23.2273 14.9867 23.2461 14.9455 23.268L14.8703 23.3119H14.8625C13.0049 24.2614 10.7042 24.2311 8.89664 23.2016C8.21533 22.8258 7.35378 22.8326 6.70914 23.2006C6.64095 23.2395 6.56937 23.269 6.49722 23.2904C4.75772 24.1808 2.63318 24.2101 0.871248 23.3715L0.510896 23.184L0.423982 23.1303C0.00928676 22.8389 -0.125147 22.2742 0.128084 21.8227C0.381499 21.3713 0.932897 21.1929 1.39761 21.3949L1.48941 21.4399L1.73453 21.5668C2.9812 22.1587 4.51847 22.1161 5.72379 21.4399C5.78711 21.4044 5.8534 21.3784 5.92008 21.3578C7.07365 20.7839 8.46707 20.7799 9.63492 21.3334L9.87906 21.4594L9.88687 21.4633L10.1271 21.5893C11.3231 22.1641 12.8163 22.1376 14.0109 21.5024C14.0782 21.4547 14.1419 21.4207 14.1945 21.3979L14.1984 21.3969Z" fill="#8FD3F5"/>
<path d="M4.91617 1.60196C8.25496 -0.749554 12.0856 -0.392918 14.5304 1.90275L14.7472 2.10782C14.8483 2.21263 14.9674 2.34822 15.1017 2.52286L15.2404 2.71036L15.256 2.73282L15.2707 2.75528C15.9225 3.77971 16.2318 4.82867 16.2892 5.73673L16.299 5.97501C16.31 6.52282 16.2381 7.01387 16.1183 7.40177C16.0521 7.61602 15.9565 7.84726 15.8185 8.04435C15.751 8.14064 15.6413 8.27436 15.4796 8.38517C15.3999 8.43972 15.2872 8.4998 15.1505 8.53946C14.8618 8.65995 14.5714 8.66878 14.3283 8.62931C14.0422 8.58274 13.7821 8.46706 13.5802 8.36368C13.3935 8.26802 13.1709 8.13524 12.9435 7.99454L12.2755 7.58048C12.1815 7.52409 12.0737 7.48194 11.9455 7.4545C12.4222 12.2263 16.4496 15.9515 21.3468 15.9516H22.9962L23.0988 15.9565C23.6029 16.0076 23.9959 16.4341 23.9962 16.9516C23.9962 17.4694 23.6031 17.8955 23.0988 17.9467L22.9962 17.9516H21.3468C15.4404 17.9515 10.5805 13.479 9.96597 7.73575C9.72665 7.80552 9.46962 7.88341 9.19156 7.96915L9.13394 7.98771L9.07437 7.99845C7.33945 8.31074 6.23197 7.49237 5.87418 7.28458C5.39658 7.00725 5.23455 6.395 5.51187 5.91739C5.78941 5.44062 6.40084 5.27816 6.87808 5.55509C7.33031 5.81769 7.79806 6.17768 8.67105 6.03653C9.41606 5.80665 10.1988 5.56497 10.925 5.4672C11.6946 5.36367 12.531 5.40139 13.3048 5.86564L14.0002 6.2963C14.1038 6.36077 14.1954 6.41555 14.2765 6.46329C14.2876 6.37345 14.2974 6.27323 14.3 6.16446L14.2931 5.86271C14.2579 5.30658 14.0623 4.59168 13.5968 3.85196C13.4668 3.67199 13.3688 3.55973 13.3078 3.4965C13.2249 3.41057 13.251 3.44494 13.1623 3.36173L13.1613 3.36075C11.4124 1.71861 8.51784 1.36204 5.82144 3.41544C2.72971 5.91737 2.29814 9.05131 2.10562 10.7162L2.05582 11.3129C1.86693 14.1203 2.26993 17.1955 2.71011 19.0873L2.80484 19.474L2.82535 19.5736C2.90193 20.0746 2.58725 20.5622 2.08609 20.6918C1.58491 20.8211 1.07434 20.5469 0.898591 20.0717L0.868318 19.9731L0.764802 19.5541C0.252872 17.3591 -0.207365 13.7446 0.115388 10.517L0.116365 10.5102L0.117341 10.5024C0.321528 8.73275 0.819601 4.88589 4.5734 1.85392L4.58414 1.8461L4.5939 1.83732L4.91617 1.60196Z" fill="#8FD3F5"/>
<path d="M6.47867 11.0014C7.02886 10.9896 7.4852 11.4246 7.50015 11.974V11.9848C7.50086 11.998 7.50302 12.0225 7.50601 12.0561C7.51206 12.1237 7.52388 12.2292 7.54703 12.3617C7.59379 12.6292 7.68416 12.997 7.85562 13.3891C8.17148 14.111 8.75473 14.9099 9.88687 15.3686L10.1203 15.4555L10.215 15.4936C10.676 15.7046 10.9113 16.2348 10.7443 16.725C10.5772 17.215 10.0672 17.4916 9.5734 17.3774L9.47476 17.349L9.12222 17.2172C7.41233 16.5208 6.49636 15.273 6.02261 14.1899C5.77313 13.6193 5.64375 13.0922 5.57633 12.7065C5.54249 12.5129 5.52429 12.3518 5.51383 12.2348C5.50859 12.1762 5.50499 12.1278 5.50308 12.0922C5.50214 12.0745 5.50156 12.0598 5.50113 12.0483C5.50092 12.0425 5.50125 12.0368 5.50113 12.0326L5.50015 12.0277V12.0238C5.50015 12.0238 5.51632 12.0227 6.50015 12.0014L5.50015 12.0238C5.48829 11.4719 5.92672 11.0135 6.47867 11.0014Z" fill="#8FD3F5"/>
</svg>
