<svg width="203" height="28" viewBox="0 0 203 28" fill="none" xmlns="http://www.w3.org/2000/svg">
<path d="M56.2208 27.9183H55.6108V23.3283H56.2208V27.9183Z" fill="#9FA0A0"/>
<path d="M64.2178 27.9183H63.598L61.1889 24.2883V27.9183H60.6091V23.3283H61.2289L63.638 26.9483V23.3283H64.2178V27.9183Z" fill="#9FA0A0"/>
<path d="M70.9555 23.8683H68.4864V25.2883H70.6356V25.8383H68.4864V27.9183H67.8866V23.3283H70.9755L70.9555 23.8683Z" fill="#9FA0A0"/>
<path d="M77.8341 27.9183H74.9941V23.3283H75.5941V27.3283H77.8341V27.9183Z" fill="#9FA0A0"/>
<path d="M85.5505 27.9183H84.8707L84.3409 26.5183H82.4116L81.9017 27.9183H81.262L83.0313 23.3283H83.6811L85.5505 27.9183ZM84.161 25.9983L83.3512 23.8683L82.5715 25.9983H84.161Z" fill="#9FA0A0"/>
<path d="M91.2285 23.8683H89.699V27.9183H89.0993V23.8683H87.5898V23.3283H91.2285V23.8683Z" fill="#9FA0A0"/>
<path d="M98.556 27.9183H97.8662L97.3364 26.5183H95.4071L94.8972 27.9183H94.2575L96.0269 23.3283H96.6767L98.556 27.9183ZM97.1565 26.0383L96.3468 23.9083L95.5671 26.0383H97.1565Z" fill="#9FA0A0"/>
<path d="M105.114 26.5883C105.129 26.7774 105.098 26.9675 105.023 27.1418C104.948 27.3162 104.832 27.4695 104.684 27.5883C104.308 27.8437 103.857 27.9636 103.404 27.9283H101.685V23.3383H103.314C103.54 23.3371 103.765 23.364 103.984 23.4183C104.161 23.4621 104.327 23.5402 104.474 23.6483C104.606 23.7444 104.712 23.8715 104.784 24.0183C104.856 24.1714 104.894 24.3388 104.894 24.5083C104.906 24.7251 104.847 24.94 104.726 25.1204C104.605 25.3008 104.429 25.437 104.224 25.5083C104.366 25.5423 104.501 25.5997 104.624 25.6783C104.731 25.7453 104.825 25.8298 104.904 25.9283C104.973 26.0299 105.027 26.1411 105.064 26.2583C105.099 26.3647 105.116 26.4762 105.114 26.5883ZM102.285 25.2483H103.284C103.541 25.265 103.797 25.2095 104.024 25.0883C104.107 25.026 104.172 24.9437 104.214 24.8493C104.256 24.7548 104.273 24.6512 104.264 24.5483C104.264 24.4495 104.247 24.3515 104.214 24.2583C104.177 24.1715 104.114 24.0981 104.034 24.0483C103.941 23.9837 103.835 23.9395 103.724 23.9183C103.56 23.8837 103.392 23.8669 103.224 23.8683H102.225L102.285 25.2483ZM102.285 27.3683H103.394C104.124 27.3683 104.494 27.1083 104.494 26.5883C104.496 26.4656 104.476 26.3436 104.434 26.2283C104.388 26.1334 104.319 26.0511 104.234 25.9883C104.125 25.9151 104.003 25.8642 103.874 25.8383C103.688 25.8208 103.501 25.8208 103.314 25.8383H102.315L102.285 27.3683Z" fill="#9FA0A0"/>
<path d="M111.822 27.9183H108.982V23.3283H109.582V27.3283H111.822V27.9183Z" fill="#9FA0A0"/>
<path d="M119.109 27.9183H115.68V23.3283H119.009V23.8683H116.28V25.2683H118.829V25.8183H116.28V27.3683H119.109V27.9183Z" fill="#9FA0A0"/>
<path d="M131.305 27.9183H130.655L130.215 26.6983C130.178 26.5905 130.124 26.4892 130.055 26.3983C129.994 26.3074 129.916 26.2292 129.825 26.1683C129.741 26.1002 129.647 26.0461 129.545 26.0083C129.435 25.9763 129.32 25.9595 129.205 25.9583H128.076V27.9583H127.466V23.3683H129.465C129.69 23.3661 129.914 23.3862 130.135 23.4283C130.32 23.4689 130.497 23.5435 130.655 23.6483C130.797 23.7475 130.91 23.8819 130.985 24.0383C131.066 24.231 131.103 24.4393 131.095 24.6483C131.097 24.8012 131.074 24.9534 131.025 25.0983C130.977 25.2267 130.905 25.3453 130.815 25.4483C130.721 25.5532 130.609 25.6412 130.485 25.7083C130.356 25.7795 130.218 25.8333 130.075 25.8683C130.253 25.943 130.411 26.0577 130.538 26.2033C130.664 26.349 130.756 26.5217 130.805 26.7083L131.305 27.9183ZM128.076 25.4083H129.465C129.625 25.4208 129.785 25.4208 129.945 25.4083C130.068 25.3883 130.184 25.3404 130.285 25.2683C130.372 25.2077 130.441 25.1248 130.485 25.0283C130.528 24.9098 130.548 24.7843 130.545 24.6583C130.545 24.1283 130.215 23.8683 129.545 23.8683H128.086L128.076 25.4083Z" fill="#9FA0A0"/>
<path d="M136.393 27.9983C136.154 28.001 135.916 27.9741 135.683 27.9183C135.509 27.8735 135.343 27.799 135.193 27.6983C135.065 27.6116 134.956 27.4992 134.873 27.3683C134.793 27.2378 134.733 27.0963 134.694 26.9483C134.651 26.7943 134.621 26.6371 134.604 26.4783C134.604 26.3183 134.604 26.1483 134.604 25.9783V23.3283H135.203V25.9983C135.199 26.2506 135.226 26.5025 135.283 26.7483C135.323 26.9146 135.401 27.069 135.513 27.1983C135.618 27.3036 135.749 27.3795 135.893 27.4183C136.064 27.4522 136.238 27.469 136.413 27.4683C136.585 27.4703 136.756 27.4501 136.923 27.4083C137.068 27.3734 137.2 27.2969 137.303 27.1883C137.414 27.059 137.493 26.9046 137.533 26.7383C137.591 26.496 137.618 26.2473 137.613 25.9983V23.3583H138.212V25.9983C138.214 26.2836 138.187 26.5683 138.132 26.8483C138.083 27.0802 137.984 27.2985 137.842 27.4883C137.696 27.664 137.507 27.7985 137.293 27.8783C137.003 27.9738 136.698 28.0145 136.393 27.9983Z" fill="#9FA0A0"/>
<path d="M146.1 26.5883C146.115 26.7774 146.084 26.9675 146.009 27.1418C145.934 27.3162 145.818 27.4695 145.67 27.5883C145.294 27.8437 144.843 27.9636 144.39 27.9283H142.671V23.3383H144.3C144.526 23.3371 144.751 23.364 144.97 23.4183C145.147 23.4621 145.313 23.5402 145.46 23.6483C145.592 23.7444 145.698 23.8715 145.77 24.0183C145.842 24.1714 145.88 24.3388 145.88 24.5083C145.892 24.7251 145.833 24.94 145.712 25.1204C145.591 25.3008 145.415 25.437 145.21 25.5083C145.352 25.5423 145.487 25.5997 145.61 25.6783C145.716 25.7453 145.811 25.8298 145.89 25.9283C145.959 26.0299 146.013 26.1411 146.05 26.2583C146.085 26.3647 146.102 26.4762 146.1 26.5883ZM143.271 25.2483H144.27C144.527 25.265 144.783 25.2095 145.01 25.0883C145.092 25.026 145.158 24.9437 145.2 24.8493C145.242 24.7548 145.259 24.6512 145.25 24.5483C145.25 24.4495 145.233 24.3515 145.2 24.2583C145.163 24.1715 145.1 24.0981 145.02 24.0483C144.927 23.9837 144.821 23.9395 144.71 23.9183C144.546 23.8837 144.378 23.8669 144.21 23.8683H143.211L143.271 25.2483ZM143.271 27.3683H144.38C145.11 27.3683 145.48 27.1083 145.48 26.5883C145.482 26.4656 145.462 26.3436 145.42 26.2283C145.376 26.1315 145.307 26.0485 145.22 25.9883C145.111 25.9151 144.989 25.8642 144.86 25.8383C144.674 25.8208 144.486 25.8208 144.3 25.8383H143.301L143.271 27.3683Z" fill="#9FA0A0"/>
<path d="M153.097 26.5883C153.113 26.7774 153.082 26.9675 153.007 27.1418C152.932 27.3162 152.815 27.4695 152.667 27.5883C152.292 27.8437 151.841 27.9636 151.388 27.9283H149.668V23.3383H151.298C151.524 23.3371 151.749 23.364 151.968 23.4183C152.144 23.4621 152.311 23.5402 152.457 23.6483C152.589 23.7444 152.696 23.8715 152.767 24.0183C152.84 24.1714 152.877 24.3388 152.877 24.5083C152.889 24.7251 152.83 24.94 152.71 25.1204C152.589 25.3008 152.413 25.437 152.207 25.5083C152.35 25.5403 152.485 25.5979 152.607 25.6783C152.714 25.7453 152.809 25.8298 152.887 25.9283C152.956 26.0299 153.01 26.1411 153.047 26.2583C153.082 26.3647 153.099 26.4762 153.097 26.5883ZM150.268 25.2483H151.268C151.524 25.265 151.781 25.2095 152.008 25.0883C152.09 25.026 152.155 24.9437 152.197 24.8493C152.239 24.7548 152.256 24.6512 152.247 24.5483C152.247 24.4495 152.23 24.3515 152.197 24.2583C152.16 24.1715 152.098 24.0981 152.018 24.0483C151.922 23.9819 151.813 23.9375 151.698 23.9183C151.537 23.8831 151.372 23.8663 151.208 23.8683H150.208L150.268 25.2483ZM150.268 27.3683H151.378C152.108 27.3683 152.477 27.1083 152.477 26.5883C152.48 26.4656 152.459 26.3436 152.417 26.2283C152.374 26.1315 152.305 26.0485 152.218 25.9883C152.109 25.9151 151.986 25.8642 151.858 25.8383C151.671 25.8208 151.484 25.8208 151.298 25.8383H150.298L150.268 27.3683Z" fill="#9FA0A0"/>
<path d="M160.095 27.9183H156.666V23.3283H159.995V23.8683H157.266V25.2683H159.815V25.8183H157.266V27.3683H160.095V27.9183Z" fill="#9FA0A0"/>
<path d="M167.292 27.9183H166.643L166.203 26.6983C166.166 26.5905 166.112 26.4892 166.043 26.3983C165.982 26.3074 165.904 26.2292 165.813 26.1683C165.729 26.1002 165.634 26.0461 165.533 26.0083C165.422 25.9763 165.308 25.9595 165.193 25.9583H164.063V27.9583H163.454V23.3683H165.453C165.678 23.3661 165.902 23.3862 166.123 23.4283C166.308 23.4689 166.484 23.5435 166.643 23.6483C166.784 23.7475 166.898 23.8819 166.972 24.0383C167.054 24.231 167.091 24.4393 167.082 24.6483C167.085 24.8012 167.061 24.9534 167.012 25.0983C166.964 25.2267 166.893 25.3453 166.802 25.4483C166.708 25.5532 166.597 25.6412 166.473 25.7083C166.344 25.7795 166.206 25.8333 166.063 25.8683C166.241 25.943 166.399 26.0577 166.525 26.2033C166.652 26.349 166.743 26.5217 166.792 26.7083L167.292 27.9183ZM164.063 25.4083H165.453C165.613 25.4208 165.773 25.4208 165.933 25.4083C166.055 25.3883 166.172 25.3404 166.273 25.2683C166.36 25.2077 166.429 25.1248 166.473 25.0283C166.516 24.9098 166.536 24.7843 166.533 24.6583C166.533 24.1283 166.203 23.8683 165.533 23.8683H164.073L164.063 25.4083Z" fill="#9FA0A0"/>
<path d="M181.337 23.3283L180.058 27.9183H179.448L178.358 23.9183L177.259 27.9183H176.669L175.449 23.3283H176.089L177.009 27.0583L178.009 23.3283H178.728L179.728 27.0583L180.658 23.3283H181.337Z" fill="#9FA0A0"/>
<path d="M188.085 27.9183H184.656V23.3283H187.985V23.8683H185.256V25.2683H187.805V25.8183H185.256V27.3683H188.085V27.9183Z" fill="#9FA0A0"/>
<path d="M192.674 27.9183H192.064V23.3283H192.674V27.9183Z" fill="#9FA0A0"/>
<path d="M200.281 27.9183H199.631L199.191 26.6983C199.154 26.5905 199.1 26.4892 199.031 26.3983C198.97 26.3074 198.892 26.2292 198.801 26.1683C198.717 26.1002 198.623 26.0461 198.522 26.0083C198.411 25.9763 198.297 25.9595 198.182 25.9583H197.052V27.9583H196.442V23.3683H198.442C198.666 23.3661 198.891 23.3862 199.111 23.4283C199.297 23.4689 199.473 23.5435 199.631 23.6483C199.773 23.7475 199.887 23.8819 199.961 24.0383C200.042 24.231 200.08 24.4393 200.071 24.6483C200.074 24.8012 200.05 24.9534 200.001 25.0983C199.953 25.2267 199.882 25.3453 199.791 25.4483C199.697 25.5532 199.585 25.6412 199.461 25.7083C199.332 25.7795 199.194 25.8333 199.051 25.8683C199.229 25.943 199.387 26.0577 199.514 26.2033C199.64 26.349 199.732 26.5217 199.781 26.7083L200.281 27.9183ZM197.052 25.4083H198.442C198.601 25.4208 198.762 25.4208 198.921 25.4083C199.044 25.3883 199.16 25.3404 199.261 25.2683C199.348 25.2077 199.417 25.1248 199.461 25.0283C199.504 24.9098 199.525 24.7843 199.521 24.6583C199.521 24.1283 199.191 23.8683 198.522 23.8683H197.062L197.052 25.4083Z" fill="#9FA0A0"/>
<path d="M60.1093 0.238258C63.2582 0.238258 65.3974 1.10825 66.5071 2.85825C67.638 4.6884 68.2144 6.80722 68.1665 8.95826C68.2354 11.1905 67.568 13.3833 66.2671 15.1983C65.0076 16.9116 62.9016 17.7649 59.9493 17.7583H57.6001C56.8397 17.7689 56.1036 17.4901 55.5408 16.9783C55.2494 16.7119 55.0197 16.3851 54.8677 16.0206C54.7157 15.6561 54.6453 15.2628 54.6612 14.8683V0.238258H60.1093ZM58.7397 14.9983H60.5891C61.0975 14.99 61.5953 14.8526 62.036 14.5989C62.4767 14.3453 62.8456 13.9837 63.1082 13.5483C63.8805 12.1227 64.2274 10.5053 64.1079 8.88828C64.2375 7.33233 63.922 5.7716 63.1982 4.38828C62.9419 3.98603 62.5868 3.65621 62.1668 3.43037C61.7467 3.20452 61.2758 3.09019 60.799 3.09827H58.7498L58.7397 14.9983Z" fill="#006FBC"/>
<path d="M78.8228 0.158272L86.0104 17.7583H81.7118L80.4223 14.6683H74.4243L73.1348 17.7583H68.8363L76.0338 0.158272H78.8228ZM79.3227 11.3083L77.4133 6.10825L75.494 11.3083H79.3227Z" fill="#006FBC"/>
<path d="M97.4764 0.238258V3.04826H91.0986V7.27827H96.8466V10.0883H91.0986V14.9983H97.7063V17.8083H90.1589C89.3355 17.8209 88.5396 17.5125 87.9397 16.9483C87.6354 16.6559 87.3961 16.3026 87.2376 15.9114C87.0792 15.5203 87.005 15.1001 87.02 14.6783V0.238258H97.4764Z" fill="#006FBC"/>
<path d="M104.094 0.238258C107.243 0.238258 109.382 1.10825 110.492 2.85825C111.623 4.6884 112.199 6.80722 112.151 8.95826C112.22 11.1905 111.553 13.3833 110.252 15.1983C108.992 16.9116 106.886 17.7649 103.934 17.7583H101.585C100.824 17.7689 100.088 17.4901 99.5257 16.9783C99.2342 16.7119 99.0045 16.3851 98.8525 16.0206C98.7005 15.6561 98.6301 15.2628 98.646 14.8683V0.238258H104.094ZM102.725 14.9983H104.574C105.082 14.99 105.58 14.8526 106.021 14.5989C106.461 14.3453 106.83 13.9837 107.093 13.5483C107.865 12.1227 108.212 10.5053 108.093 8.88828C108.222 7.33233 107.907 5.7716 107.183 4.38828C106.927 3.98603 106.572 3.65621 106.152 3.43037C105.732 3.20452 105.261 3.09019 104.784 3.09827H102.785L102.725 14.9983Z" fill="#006FBC"/>
<path d="M126.156 2.65827C127.346 4.54005 127.951 6.73241 127.896 8.95826C127.961 11.2411 127.292 13.4846 125.987 15.3583C125.36 16.2236 124.526 16.9184 123.563 17.3794C122.599 17.8405 121.535 18.0532 120.468 17.9983C117.729 17.9983 115.807 17.0849 114.7 15.2583C113.572 13.3536 112.998 11.1718 113.041 8.95826C113.037 6.82697 113.588 4.73142 114.64 2.87827C115.71 0.958273 117.639 -0.00173187 120.468 -0.00173187C123.094 -0.00173187 124.99 0.884938 126.156 2.65827ZM117.989 4.45826C117.337 5.86504 117.035 7.40917 117.11 8.95826C117.013 10.5604 117.337 12.1601 118.049 13.5983C118.258 14.068 118.599 14.4671 119.03 14.7472C119.461 15.0272 119.964 15.1763 120.478 15.1763C120.992 15.1763 121.495 15.0272 121.927 14.7472C122.358 14.4671 122.698 14.068 122.908 13.5983C123.607 12.149 123.924 10.5447 123.827 8.93827C123.927 7.34453 123.61 5.75234 122.908 4.31828C122.681 3.86334 122.334 3.47975 121.903 3.20979C121.473 2.93982 120.976 2.79396 120.468 2.78828C119.937 2.79399 119.419 2.95518 118.979 3.25196C118.538 3.54874 118.194 3.96809 117.989 4.45826Z" fill="#006FBC"/>
<path d="M142.461 0.238258V3.04826H136.093V7.27827H141.841V10.0883H136.093V14.9983H142.701V17.8083H135.153C134.33 17.8209 133.534 17.5125 132.934 16.9483C132.63 16.6559 132.391 16.3026 132.232 15.9114C132.074 15.5203 132 15.1001 132.014 14.6783V0.238258H142.461Z" fill="#8FD3F5"/>
<path d="M148.749 0.238258L153.457 10.4483V0.238258H157.536V17.7583H153.187L148.459 8.13828V17.7583H144.38V0.238258H148.749Z" fill="#8FD3F5"/>
<path d="M174.29 0.238258V3.04826H169.392V17.7583H165.323V3.04826H160.455V0.238258H174.29Z" fill="#00A0E9"/>
<path d="M186.446 0.238258V3.04826H180.068V7.27827H185.816V10.0883H180.068V14.9983H186.676V17.8083H179.128C178.305 17.8209 177.509 17.5125 176.909 16.9483C176.605 16.6559 176.365 16.3026 176.207 15.9114C176.049 15.5203 175.974 15.1001 175.989 14.6783V0.238258H186.446Z" fill="#00A0E9"/>
<path d="M200.491 1.35827C201.087 1.75801 201.579 2.29393 201.926 2.92168C202.274 3.54944 202.467 4.25099 202.49 4.96828H198.342C198.263 4.37686 197.963 3.83732 197.502 3.45827C196.945 3.04914 196.262 2.85071 195.573 2.89828C195.045 2.91088 194.529 3.05686 194.073 3.32262C193.616 3.58839 193.235 3.96533 192.963 4.4183C192.179 5.70968 191.806 7.20954 191.894 8.71828C191.813 10.3574 192.175 11.9881 192.943 13.4383C193.197 13.9523 193.586 14.387 194.069 14.6955C194.552 15.004 195.11 15.1744 195.683 15.1883C196.48 15.2212 197.258 14.9413 197.852 14.4083C198.472 13.7806 198.829 12.9403 198.851 12.0583H203C202.961 12.8587 202.764 13.6435 202.421 14.3676C202.078 15.0918 201.595 15.7411 201.001 16.2783C199.402 17.5051 197.412 18.1102 195.401 17.9815C193.39 17.8528 191.494 16.9989 190.064 15.5783C188.506 13.679 187.72 11.2614 187.865 8.80828C187.865 5.95828 188.645 3.80828 190.204 2.30828C190.97 1.57218 191.874 0.995897 192.864 0.613029C193.855 0.230161 194.911 0.048359 195.972 0.0782693C197.574 0.0303033 199.152 0.477245 200.491 1.35827Z" fill="#00A0E9"/>
<path fill-rule="evenodd" clip-rule="evenodd" d="M0.0100098 10.9983H49.9128L43.7049 16.9983H7.59739L0.0100098 10.9983Z" fill="url(#paint0_linear_167_152)"/>
<path fill-rule="evenodd" clip-rule="evenodd" d="M48.4933 -0.00173187H34.2882C32.1463 0.0980748 30.0624 0.726481 28.2223 1.82746C26.3821 2.92844 24.8429 4.46778 23.7418 6.30827C22.2586 8.73467 21.5167 11.5418 21.6073 14.3845C21.6978 17.2271 22.617 19.9813 24.2516 22.3083C26.6308 25.3983 29.6698 27.9583 36.4274 27.9583C43.1851 27.9583 50.2727 24.3083 50.2727 14.7283C50.2557 13.4487 50.1219 12.1734 49.8728 10.9183L43.7049 16.9183C43.7049 16.9183 43.0352 21.8183 37.1772 21.8183C31.3192 21.8183 29.6198 16.8183 29.6198 13.7383C29.6198 10.6583 31.6991 6.23826 36.6174 6.23826H48.4933V-0.00173187Z" fill="url(#paint1_linear_167_152)"/>
<path fill-rule="evenodd" clip-rule="evenodd" d="M0.119961 -0.00173187V6.22828H10.9263C10.9263 6.22828 18.5136 6.51826 18.5136 14.0183C18.5136 21.5183 11.7859 21.7583 7.65737 21.7583L0.0200195 27.5683H8.767C8.767 27.5683 16.7642 27.8683 22.2823 23.5683C27.8004 19.2683 26.5409 9.88825 23.7818 6.07825C21.0228 2.26825 15.7846 0.0782547 10.3165 0.0782547L0.119961 -0.00173187Z" fill="url(#paint2_linear_167_152)"/>
<path fill-rule="evenodd" clip-rule="evenodd" d="M0.0100063 10.9383L7.60739 16.9383V21.9383L0 27.6083L0.0100063 10.9383Z" fill="url(#paint3_linear_167_152)"/>
<defs>
<linearGradient id="paint0_linear_167_152" x1="0.0100098" y1="13.9583" x2="49.9128" y2="13.9583" gradientUnits="userSpaceOnUse">
<stop offset="0.08" stop-color="#08347E"/>
<stop offset="0.25" stop-color="#0787CA"/>
<stop offset="0.3" stop-color="#0679BD"/>
<stop offset="0.43" stop-color="#05549B"/>
<stop offset="0.54" stop-color="#043E87"/>
<stop offset="0.61" stop-color="#04367F"/>
<stop offset="0.8" stop-color="#1B96D5"/>
<stop offset="0.99" stop-color="#1B206A"/>
</linearGradient>
<linearGradient id="paint1_linear_167_152" x1="21.5826" y1="13.9983" x2="50.2727" y2="13.9983" gradientUnits="userSpaceOnUse">
<stop stop-color="#0E317C"/>
<stop offset="0.09" stop-color="#0C3C87"/>
<stop offset="0.24" stop-color="#065BA3"/>
<stop offset="0.39" stop-color="#007DC3"/>
<stop offset="0.72" stop-color="#0071BA"/>
<stop offset="1" stop-color="#0C89CC"/>
</linearGradient>
<linearGradient id="paint2_linear_167_152" x1="0.0200195" y1="13.7883" x2="26.121" y2="13.7883" gradientUnits="userSpaceOnUse">
<stop stop-color="#0787CA"/>
<stop offset="0.06" stop-color="#067CC2"/>
<stop offset="0.26" stop-color="#0357A8"/>
<stop offset="0.42" stop-color="#024198"/>
<stop offset="0.52" stop-color="#013992"/>
<stop offset="0.71" stop-color="#004398"/>
<stop offset="1" stop-color="#0C89CC"/>
</linearGradient>
<linearGradient id="paint3_linear_167_152" x1="-2.73906" y1="12.8683" x2="5.07185" y2="24.0257" gradientUnits="userSpaceOnUse">
<stop stop-color="#0787CA"/>
<stop offset="0.15" stop-color="#0474BD"/>
<stop offset="0.38" stop-color="#015EAD"/>
<stop offset="0.52" stop-color="#0056A7"/>
<stop offset="1" stop-color="#0C89CC"/>
</linearGradient>
</defs>
</svg>
