<svg width="21" height="20" viewBox="0 0 21 20" fill="none" xmlns="http://www.w3.org/2000/svg">
<path fill-rule="evenodd" clip-rule="evenodd" d="M10.5 20C16.0228 20 20.5 15.5228 20.5 10C20.5 4.47715 16.0228 0 10.5 0C4.97715 0 0.5 4.47715 0.5 10C0.5 15.5228 4.97715 20 10.5 20ZM6.1421 13.8254C5.71933 12.5889 5.5 11.3032 5.5 10C5.5 9.40966 5.54501 8.82291 5.63354 8.2427C4.49777 7.97038 3.3023 7.60862 2.00103 7.16048C1.70306 8.05275 1.54167 9.00753 1.54167 10C1.54167 10.7386 1.63104 11.4562 1.79956 12.1428C3.38689 12.8785 4.80813 13.4384 6.1421 13.8254ZM6.62758 15.0345C5.24817 14.6932 3.81248 14.1747 2.24571 13.4871C3.45585 16.3481 6.10997 18.4496 9.29442 18.8779C8.16117 17.7072 7.26425 16.4101 6.62758 15.0345ZM7.93039 15.3064C8.75929 15.4461 9.57597 15.5182 10.3977 15.5208C11.2842 15.5235 12.1711 15.4454 13.0801 15.2872C12.4355 16.4729 11.571 17.5922 10.5 18.6053C9.43473 17.5977 8.57386 16.485 7.93039 15.3064ZM13.6366 14.1157C12.5161 14.3629 11.4537 14.4824 10.401 14.4791C9.40465 14.476 8.40891 14.3629 7.37259 14.1383C6.82433 12.8057 6.54167 11.4092 6.54167 10C6.54167 9.48617 6.57925 8.97403 6.65358 8.46606C7.94264 8.7203 9.16939 8.85128 10.4073 8.85412C11.6897 8.85706 12.9747 8.72248 14.3443 8.45163C14.42 8.96433 14.4583 9.4813 14.4583 10C14.4583 11.4013 14.1788 12.7899 13.6366 14.1157ZM14.3838 15.0099C13.7464 16.3947 12.8456 17.7003 11.7056 18.8779C14.8938 18.4491 17.5504 16.3431 18.7585 13.477C17.1859 14.1566 15.7503 14.6684 14.3838 15.0099ZM19.201 12.1407C17.612 12.865 16.1907 13.4159 14.8664 13.8005C15.2836 12.5717 15.5 11.2945 15.5 10C15.5 9.40493 15.4543 8.8135 15.3643 8.22875C16.4953 7.95923 17.693 7.60292 18.999 7.16047C19.2969 8.05274 19.4583 9.00752 19.4583 10C19.4583 10.7378 19.3691 11.4547 19.201 12.1407ZM10.4097 7.81245C11.6136 7.81522 12.8294 7.68942 14.1424 7.42972C13.5985 5.23627 12.3612 3.15526 10.5 1.39468C8.63478 3.15905 7.39618 5.24523 6.8541 7.44388C8.08796 7.68733 9.24758 7.80979 10.4097 7.81245ZM15.1605 7.20644C16.2253 6.95114 17.3621 6.61385 18.611 6.19203C17.3429 3.49558 14.7698 1.53426 11.7056 1.12209C13.438 2.91177 14.6182 4.99691 15.1605 7.20644ZM2.38883 6.1923C3.63386 6.61985 4.7681 6.9622 5.83617 7.22004C6.37696 5.00546 7.5584 2.91545 9.29442 1.12209C6.23014 1.53428 3.65691 3.4957 2.38883 6.1923Z" fill="white"/>
</svg>
