<svg width="20" height="24" viewBox="0 0 20 24" fill="none" xmlns="http://www.w3.org/2000/svg">
<path fill-rule="evenodd" clip-rule="evenodd" d="M8.82111 5.18262C9.34707 4.27651 10.6557 4.27636 11.1815 5.18262L11.2313 5.27637L11.9041 6.65625L13.3514 6.89746L13.4568 6.91895C14.5195 7.17432 14.8215 8.49239 14.1151 9.23242L14.116 9.2334L13.0545 10.3428L13.2899 11.9053L13.3055 12.0967C13.3119 13.0187 12.375 13.8273 11.3963 13.3926L11.2957 13.3438L10.0008 12.6543L8.70685 13.3438C7.62503 13.9192 6.55702 12.9334 6.71173 11.9053L6.94708 10.3438L5.88654 9.2334C5.15745 8.46975 5.50249 7.08858 6.65021 6.89746L8.0965 6.65625L8.7713 5.27637L8.82111 5.18262ZM9.7547 7.82129C9.58844 8.16202 9.28588 8.42792 8.91193 8.53906L8.74689 8.57617L8.12384 8.67969L8.59943 9.17773L8.7049 9.30176C8.8993 9.56033 8.99479 9.87716 8.98322 10.1943L8.96857 10.3525L8.87189 10.9893L9.36212 10.7295L9.51544 10.6592C9.88031 10.5195 10.2906 10.543 10.6404 10.7295L11.1287 10.9893L11.033 10.3525C10.9694 9.93114 11.1011 9.49437 11.4031 9.17773L11.8777 8.67969L11.2547 8.57617C10.8618 8.51074 10.5309 8.28023 10.327 7.96289L10.2469 7.82129L10.0008 7.31641L9.7547 7.82129Z" fill="#8FD3F5"/>
<path fill-rule="evenodd" clip-rule="evenodd" d="M10.0008 0.000976562C14.9716 0.00113976 19.0008 4.03099 19.0008 9.00195C19.0008 11.0873 18.2896 13.0052 17.0994 14.5312L19.4402 18.875L19.6805 19.3281C19.7562 19.4774 19.8244 19.6227 19.8748 19.7559C19.9369 19.9199 20.0304 20.2208 19.9842 20.5625C19.9783 20.7041 19.9442 20.8134 19.9227 20.8711C19.8538 21.0553 19.7459 21.1723 19.7342 21.1855C19.6776 21.2493 19.6239 21.2921 19.618 21.2969C19.6007 21.3109 19.5861 21.3219 19.5789 21.3271C19.5438 21.3531 19.5047 21.3784 19.4979 21.3828L19.4969 21.3818C19.1586 21.5991 18.7453 21.6593 18.408 21.668C18.1282 21.6751 17.8153 21.6492 17.4774 21.5869L17.1307 21.5127C16.7358 21.4161 16.5046 21.36 16.3309 21.334C16.2372 21.32 16.1926 21.3204 16.1785 21.3213C16.1737 21.3229 16.1691 21.3255 16.1649 21.3271C16.1583 21.3368 16.1488 21.3507 16.1375 21.3701C16.0694 21.4868 15.9916 21.6602 15.8445 21.9961C15.6332 22.4788 15.3979 22.9036 15.1395 23.2314C14.9284 23.4991 14.5725 23.8694 14.0643 23.9766L13.9608 23.9941C13.9145 24.0003 13.8676 24.0033 13.8211 24.0029L13.6824 23.9922C13.0445 23.898 12.7093 23.4145 12.5457 23.1338C12.4588 22.9846 12.373 22.8079 12.2879 22.6172L12.032 22.0137L10.3553 17.9932C10.2377 17.9977 10.1195 18.0029 10.0008 18.0029C9.88106 18.0029 9.76197 17.9978 9.64337 17.9932L7.96857 22.0127C7.76643 22.4974 7.54232 22.9193 7.28888 23.2441C7.085 23.5054 6.77088 23.821 6.33282 23.9492L6.13751 23.9922C6.04544 24.0058 5.95144 24.0064 5.85919 23.9941C5.2218 23.9089 4.87923 23.4322 4.71075 23.1543C4.62121 23.0065 4.53271 22.831 4.44415 22.6416L4.17657 22.043C4.03048 21.7093 3.94604 21.519 3.86993 21.3867C3.85289 21.3571 3.83818 21.3376 3.82892 21.3242C3.82603 21.3232 3.8233 21.3213 3.82013 21.3203C3.80475 21.3195 3.76072 21.3194 3.66974 21.333C3.58287 21.346 3.48119 21.3663 3.35236 21.3955L2.86896 21.5117C2.39521 21.6276 1.9626 21.6767 1.58868 21.666C1.29189 21.6575 0.939429 21.6091 0.630677 21.4521L0.50177 21.3779C0.408472 21.3179 0.326017 21.243 0.25763 21.1562L0.194153 21.0654C-0.135148 20.5367 0.0342692 19.9978 0.125794 19.7559C0.226684 19.4893 0.398252 19.174 0.559387 18.875L2.90021 14.5303C1.71056 13.0044 0.999817 11.0866 0.999817 9.00195C0.999828 4.03097 5.02994 0.00110851 10.0008 0.000976562ZM19.3807 21.4385C19.3919 21.4337 19.401 21.4315 19.4051 21.4297C19.4191 21.4232 19.4303 21.4171 19.4363 21.4141C19.448 21.4081 19.4574 21.4032 19.4608 21.4014C19.4633 21.4 19.4657 21.3985 19.4676 21.3975L19.3807 21.4385ZM2.46564 19.5518C2.79771 19.4705 3.10745 19.3953 3.37384 19.3555C3.6746 19.3105 4.01104 19.2938 4.36798 19.3965L4.50275 19.4404C4.6354 19.4879 4.7647 19.5477 4.88751 19.6211L5.01251 19.7041C5.29077 19.9053 5.47245 20.1622 5.60333 20.3896C5.74643 20.6384 5.87916 20.9446 6.00861 21.2402L6.06525 21.3682C6.08296 21.328 6.10357 21.2871 6.12189 21.2432L7.60822 17.6787C6.40953 17.3489 5.31173 16.778 4.36896 16.0205L2.46564 19.5518ZM15.6297 16.0215C14.6867 16.7788 13.5894 17.3502 12.3904 17.6797L13.8777 21.2441L13.9305 21.3682C13.9566 21.313 13.9854 21.2552 14.0125 21.1934L14.2068 20.7568C14.2727 20.6155 14.3408 20.4805 14.4109 20.3604C14.566 20.0952 14.7769 19.8225 15.1121 19.6221L15.2371 19.5537C15.3635 19.4891 15.496 19.4366 15.6317 19.3975L15.7645 19.3643C16.0723 19.2991 16.3635 19.3171 16.6268 19.3564C16.8924 19.3962 17.201 19.4708 17.532 19.5518L15.6297 16.0215ZM10.0008 2.00098C6.13459 2.00111 2.99983 5.13547 2.99982 9.00195C2.99982 12.8685 6.13458 16.0028 10.0008 16.0029C13.867 16.0028 17.0008 12.8684 17.0008 9.00195C17.0008 5.13548 13.867 2.00114 10.0008 2.00098Z" fill="#8FD3F5"/>
</svg>
