<svg width="24" height="24" viewBox="0 0 24 24" fill="none" xmlns="http://www.w3.org/2000/svg">
<path fill-rule="evenodd" clip-rule="evenodd" d="M17.7782 0.959203C19.2407 -0.362309 21.4994 -0.318274 22.909 1.09104L23.0409 1.23069C24.3196 2.64615 24.3198 4.80654 23.0409 6.2219L22.909 6.36057L9.66 19.6096C8.26114 21.0084 7.43366 21.8485 6.40902 22.4211C5.85383 22.7313 5.009 23.0029 4.14144 23.2444C3.69381 23.3689 3.21215 23.4927 2.71957 23.6145L1.23129 23.9729C0.893559 24.0532 0.538285 23.9527 0.292809 23.7073C0.0474473 23.4617 -0.0532065 23.1065 0.0271837 22.7688C0.261434 21.7849 0.506558 20.7539 0.755699 19.8586C0.997135 18.991 1.26871 18.1462 1.57894 17.591L1.69027 17.4016C2.25941 16.4613 3.07927 15.6522 4.39046 14.341L17.6395 1.09104L17.7782 0.959203ZM5.80453 15.7551C4.3292 17.2304 3.7311 17.84 3.32504 18.5666C3.14597 18.8873 2.9271 19.5156 2.68246 20.3948C2.57365 20.7857 2.46486 21.2062 2.35629 21.6428C2.79305 21.5342 3.21414 21.4265 3.60531 21.3176C4.4848 21.0728 5.11284 20.8541 5.43343 20.675C6.16007 20.2689 6.76967 19.6708 8.24496 18.1955L18.8592 7.5803L16.4188 5.13987L5.80453 15.7551ZM21.495 2.50608C20.863 1.87437 19.8622 1.83401 19.1844 2.38694L19.0536 2.50608L17.8328 3.72581L20.2743 6.16623L21.495 4.94651L21.6131 4.81565C22.1292 4.18304 22.129 3.26965 21.6131 2.63694L21.495 2.50608Z" fill="#8FD3F5"/>
<path d="M18.9784 22.0051C19.4825 22.0564 19.8758 22.4825 19.8758 23.0002C19.8758 23.5179 19.4825 23.944 18.9784 23.9953L18.8758 24.0002H10.6258C10.0735 24.0002 9.62582 23.5525 9.62582 23.0002C9.62582 22.4479 10.0735 22.0002 10.6258 22.0002H18.8758L18.9784 22.0051Z" fill="#8FD3F5"/>
</svg>
