<svg width="14" height="14" viewBox="0 0 14 14" fill="none" xmlns="http://www.w3.org/2000/svg">
<path d="M9.51471 1.63042C8.76075 0.877399 7.80673 0.356226 6.76567 0.128637C5.72461 -0.0989525 4.64012 -0.0234221 3.64067 0.346282C2.64122 0.715986 1.76867 1.36437 1.12638 2.21464C0.4841 3.06491 0.098988 4.08143 0.0166633 5.14381C-0.0656614 6.20618 0.158251 7.26989 0.661879 8.20894C1.16551 9.148 1.92775 9.92304 2.85832 10.4423C3.78889 10.9615 4.84879 11.2032 5.91249 11.1387C6.97618 11.0742 7.9991 10.7062 8.86008 10.0782L12.7822 14L14 12.7823L10.0771 8.86095C10.8607 7.78656 11.2346 6.46758 11.1315 5.14183C11.0284 3.81607 10.455 2.57076 9.51471 1.63042ZM8.29689 8.29865C6.79419 9.80121 4.34903 9.80121 2.84633 8.29865C1.34363 6.79608 1.34363 4.35114 2.84633 2.84857C4.34903 1.346 6.79524 1.346 8.29689 2.84857C9.79853 4.35114 9.79895 6.79608 8.29689 8.29865Z" fill="#212121"/>
</svg>
