<svg width="24" height="24" viewBox="0 0 24 24" fill="none" xmlns="http://www.w3.org/2000/svg">
<path d="M7.71289 11.0049C8.21684 11.0564 8.61035 11.4825 8.61035 12C8.61035 12.5175 8.21684 12.9436 7.71289 12.9951L7.61035 13H7.60059C7.0483 13 6.60059 12.5523 6.60059 12C6.60059 11.4477 7.0483 11 7.60059 11H7.61035L7.71289 11.0049Z" fill="#8FD3F5"/>
<path d="M12.1074 11.0049C12.6115 11.0563 13.0049 11.4824 13.0049 12C13.0049 12.5176 12.6115 12.9437 12.1074 12.9951L12.0049 13H11.9951C11.4429 12.9999 10.9951 12.5522 10.9951 12C10.9951 11.4478 11.4429 11.0001 11.9951 11H12.0049L12.1074 11.0049Z" fill="#8FD3F5"/>
<path d="M16.502 11.0049C17.0061 11.0562 17.4004 11.4823 17.4004 12C17.4004 12.5177 17.0061 12.9438 16.502 12.9951L16.4004 13H16.3896C15.8376 12.9998 15.3896 12.5521 15.3896 12C15.3896 11.4479 15.8376 11.0002 16.3896 11H16.4004L16.502 11.0049Z" fill="#8FD3F5"/>
<path fill-rule="evenodd" clip-rule="evenodd" d="M12 0C18.5838 0.000253029 23.9989 5.11808 23.999 11.5225C23.999 17.9268 18.5845 23.0433 12.001 23.0439L12.002 23.0449C11.4195 23.0457 10.8375 23.0063 10.2617 22.9258L9.6875 22.8311C9.42552 22.7818 9.26436 22.7525 9.14648 22.7363C9.12495 22.7334 9.1067 22.731 9.09277 22.7295C9.07635 22.7366 9.0542 22.7466 9.02637 22.7598L8.48242 23.042C6.87367 23.8975 4.996 24.201 3.18457 23.8643C2.83775 23.7997 2.55044 23.5567 2.42871 23.2256C2.30708 22.8945 2.36834 22.5237 2.59082 22.25L2.76953 22.0156C3.1693 21.4552 3.44789 20.805 3.58008 20.1113C3.60426 19.9801 3.56212 19.7715 3.37109 19.5381L3.2793 19.4355C1.25303 17.3779 0 14.5936 0 11.5225C0.000130687 5.11799 5.41609 0.000108354 12 0ZM12 2C6.43623 2.00011 2.00111 6.30514 2.00098 11.5225C2.00098 14.0354 3.02253 16.3246 4.7041 18.0322L4.9043 18.2559C5.36027 18.8095 5.71255 19.5947 5.54492 20.4834V20.4854C5.4462 21.0036 5.28541 21.505 5.07422 21.9824C5.93312 21.9223 6.77787 21.6822 7.54297 21.2754L8.16797 20.9531C8.32899 20.8767 8.54646 20.782 8.78711 20.7451L8.96094 20.7275C9.13029 20.7198 9.28833 20.7371 9.41797 20.7549C9.59638 20.7794 9.81467 20.8207 10.0566 20.8662L10.5391 20.9443C11.0224 21.0119 11.5106 21.0456 11.999 21.0449L12.5186 21.0332C17.8369 20.7755 21.999 16.5768 21.999 11.5225C21.9989 6.30523 17.5636 2.00025 12 2Z" fill="#8FD3F5"/>
</svg>
