<svg width="24" height="24" viewBox="0 0 24 24" fill="none" xmlns="http://www.w3.org/2000/svg">
<path d="M14.6436 21.0781C14.6436 22.6916 13.3351 23.9989 11.7218 23.999C10.1084 23.9989 8.79989 22.6916 8.79989 21.0781H14.6436Z" fill="#8FD3F5"/>
<path fill-rule="evenodd" clip-rule="evenodd" d="M11.9991 0C14.2058 0 16.3243 0.867633 17.8878 2.41504C19.4517 3.96302 20.3321 6.06515 20.3321 8.25879C20.3321 10.874 20.7464 12.5191 21.2999 13.6787C21.716 14.5504 22.2291 15.1907 22.8028 15.8066L23.3956 16.4229L23.4171 16.4453C23.7078 16.7616 23.9011 17.1563 23.9708 17.5811C24.0404 18.0058 23.9832 18.4412 23.8077 18.834C23.6322 19.2266 23.3461 19.5586 22.9854 19.791C22.6699 19.9942 22.3089 20.114 21.9366 20.1406L21.7765 20.1465H2.22079C1.79239 20.1461 1.37211 20.0227 1.0118 19.79C0.651512 19.5573 0.365507 19.2247 0.190514 18.832C0.0155017 18.439 -0.0408168 18.0028 0.0293816 17.5781C0.0995957 17.1535 0.292959 16.7592 0.584069 16.4434L0.604577 16.4219L1.19637 15.8066C1.76941 15.1909 2.28222 14.5506 2.69833 13.6787C3.21717 12.5915 3.61374 11.0775 3.66122 8.7373L3.6661 8.25879C3.6661 6.06521 4.54661 3.96301 6.11044 2.41504C7.67391 0.867605 9.79247 7.37714e-05 11.9991 0ZM11.9991 2C10.3163 2.00007 8.70454 2.6622 7.51766 3.83691C6.33114 5.01142 5.6661 6.60229 5.6661 8.25879L5.66024 8.77832C5.60841 11.3287 5.17273 13.1368 4.50301 14.54C3.79625 16.0209 2.85968 16.9764 2.05477 17.7988L2.02059 17.8486C2.0119 17.8664 2.00618 17.8853 2.00301 17.9043C1.99675 17.9423 2.00169 17.9816 2.01766 18.0176C2.0337 18.0536 2.06074 18.086 2.09676 18.1094C2.13299 18.1328 2.17671 18.1463 2.22176 18.1465H21.7774L21.8429 18.1367C21.8639 18.1306 21.8843 18.122 21.9024 18.1104C21.9386 18.087 21.9663 18.0546 21.9825 18.0186C21.9986 17.9825 22.0034 17.9424 21.9972 17.9043C21.991 17.8674 21.974 17.8317 21.9473 17.8018C21.1401 16.9782 20.2025 16.0219 19.4952 14.54C18.7807 13.0431 18.3321 11.0858 18.3321 8.25879C18.3321 6.60238 17.6679 5.0114 16.4815 3.83691C15.2946 2.66213 13.682 2 11.9991 2Z" fill="#8FD3F5"/>
</svg>
